<svg width="80" height="80" viewBox="0 0 80 80" fill="none" xmlns="http://www.w3.org/2000/svg">
<path d="M53.7499 28.75C53.7534 25.863 52.7556 23.0642 50.9267 20.8304C49.0978 18.5967 46.5508 17.0663 43.7199 16.5C43.454 12.38 41.6298 8.5157 38.6179 5.69195C35.606 2.86821 31.6323 1.29675 27.5037 1.29675C23.3751 1.29675 19.4014 2.86821 16.3895 5.69195C13.3776 8.5157 11.5534 12.38 11.2874 16.5C8.3648 17.0876 5.74839 18.7004 3.91026 21.0474C2.07214 23.3944 1.13333 26.3211 1.26322 29.2994C1.39311 32.2777 2.58315 35.1115 4.61863 37.2896C6.65411 39.4676 9.40099 40.8465 12.3637 41.1775L12.6362 38.6925C10.1927 38.418 7.93596 37.2529 6.29719 35.4197C4.65841 33.5865 3.75248 31.2139 3.75248 28.755C3.75248 26.2961 4.65841 23.9234 6.29719 22.0903C7.93596 20.2571 10.1927 19.092 12.6362 18.8175C12.949 18.768 13.2336 18.6077 13.4381 18.3659C13.6426 18.124 13.7532 17.8167 13.7499 17.5C13.7422 13.8533 15.1833 10.3528 17.7565 7.76866C20.3296 5.18452 23.8238 3.72839 27.4706 3.7206C31.1173 3.71281 34.6178 5.154 37.2019 7.72711C39.786 10.3002 41.2422 13.7945 41.2499 17.4412C41.2499 17.4737 41.2499 17.5412 41.2499 17.5725C41.25 17.8804 41.3636 18.1775 41.5692 18.4068C41.7747 18.6361 42.0576 18.7814 42.3637 18.815C44.8072 19.0895 47.0639 20.2546 48.7027 22.0878C50.3415 23.9209 51.2474 26.2936 51.2474 28.7525C51.2474 31.2114 50.3415 33.584 48.7027 35.4172C47.0639 37.2504 44.8072 38.4155 42.3637 38.69L42.6362 41.175C45.6946 40.8384 48.5208 39.3838 50.5721 37.0905C52.6234 34.7972 53.7552 31.8268 53.7499 28.75Z" fill="#4661AD"/>
<path d="M33.125 7.75626C32.244 7.24596 31.2973 6.85861 30.3113 6.60501L29.6863 9.02501C30.4523 9.22263 31.1878 9.52373 31.8725 9.92001L33.125 7.75626Z" fill="#4661AD"/>
<path d="M27.5 8.75V6.25C24.5173 6.25331 21.6578 7.43964 19.5487 9.5487C17.4396 11.6578 16.2533 14.5173 16.25 17.5H18.75C18.7526 15.1802 19.6754 12.9561 21.3157 11.3157C22.9561 9.67537 25.1802 8.75265 27.5 8.75Z" fill="#4661AD"/>
<path d="M39.75 39.9788C40.0722 39.3415 40.3439 38.6798 40.5625 38L43.9375 37.48C44.2322 37.4353 44.5011 37.2868 44.696 37.0613C44.8908 36.8357 44.9986 36.548 45 36.25V31.25C44.9999 30.9515 44.8929 30.6629 44.6985 30.4364C44.5041 30.2098 44.235 30.0604 43.94 30.015L40.565 29.495C40.345 28.8167 40.072 28.1568 39.7487 27.5212L41.7688 24.7712C41.9457 24.5302 42.0304 24.2337 42.0075 23.9356C41.9846 23.6374 41.8555 23.3574 41.6437 23.1463L38.1087 19.6113C37.8976 19.3995 37.6176 19.2704 37.3194 19.2475C37.0213 19.2246 36.7248 19.3093 36.4837 19.4862L33.7337 21.5062C33.0947 21.1823 32.4315 20.9085 31.75 20.6875L31.23 17.3125C31.1853 17.0178 31.0368 16.7489 30.8113 16.554C30.5857 16.3592 30.298 16.2514 30 16.25H25C24.7015 16.2501 24.4129 16.3571 24.1864 16.5515C23.9598 16.7459 23.8104 17.015 23.765 17.31L23.245 20.685C22.567 20.9057 21.9071 21.1786 21.2712 21.5013L18.5213 19.4813C18.2802 19.3043 17.9837 19.2196 17.6856 19.2425C17.3874 19.2654 17.1074 19.3945 16.8963 19.6063L13.3613 23.1413C13.1495 23.3524 13.0204 23.6324 12.9975 23.9306C12.9746 24.2287 13.0593 24.5252 13.2362 24.7662L15.2562 27.5163C14.9316 28.155 14.6579 28.8183 14.4375 29.5L11.0625 30.02C10.7678 30.0647 10.4989 30.2132 10.304 30.4387C10.1092 30.6643 10.0014 30.952 10 31.25V36.25C10.0001 36.5485 10.1071 36.8371 10.3015 37.0636C10.4959 37.2902 10.765 37.4396 11.06 37.485L14.435 38.005C14.655 38.6833 14.928 39.3432 15.2513 39.9788L13.2313 42.7287C13.0543 42.9698 12.9696 43.2663 12.9925 43.5644C13.0154 43.8626 13.1445 44.1426 13.3563 44.3538L16.8912 47.8888C17.1024 48.1005 17.3824 48.2296 17.6806 48.2525C17.9787 48.2754 18.2752 48.1907 18.5162 48.0137L21.2663 45.9937C21.9021 46.3164 22.562 46.5893 23.24 46.81L23.76 50.185C23.8044 50.4818 23.9541 50.7527 24.1818 50.9483C24.4095 51.1438 24.6999 51.2509 25 51.25H30C30.2985 51.2499 30.5871 51.1429 30.8136 50.9485C31.0402 50.7541 31.1896 50.485 31.235 50.19L31.755 46.815C32.433 46.5943 33.0929 46.3214 33.7288 45.9987L36.4788 48.0188C36.7198 48.1957 37.0163 48.2804 37.3144 48.2575C37.6126 48.2346 37.8926 48.1055 38.1038 47.8937L41.6388 44.3587C41.8505 44.1476 41.9796 43.8676 42.0025 43.5694C42.0254 43.2713 41.9407 42.9748 41.7637 42.7337L39.75 39.9788ZM37.2638 40.815L39.12 43.3475L37.1012 45.365L34.57 43.51C34.3728 43.365 34.1374 43.2811 33.893 43.2686C33.6486 43.2562 33.4059 43.3158 33.195 43.44C32.2993 43.9665 31.3346 44.3657 30.3288 44.6263C30.0921 44.6874 29.8786 44.8167 29.7146 44.998C29.5507 45.1793 29.4434 45.4047 29.4062 45.6462L28.9287 48.75H26.0713L25.595 45.6462C25.5578 45.4047 25.4506 45.1793 25.2866 44.998C25.1227 44.8167 24.9092 44.6874 24.6725 44.6263C23.6667 44.3657 22.702 43.9665 21.8062 43.44C21.5954 43.3158 21.3527 43.2562 21.1082 43.2686C20.8638 43.2811 20.6284 43.365 20.4312 43.51L17.9 45.365L15.8812 43.3475L17.7375 40.815C17.8823 40.6177 17.966 40.3822 17.9782 40.1378C17.9904 39.8934 17.9307 39.6508 17.8062 39.44C17.2801 38.5447 16.8812 37.5804 16.6213 36.575C16.5598 36.3386 16.4305 36.1253 16.2492 35.9616C16.068 35.7979 15.8427 35.6909 15.6012 35.6538L12.5 35.1775V32.3225L15.6037 31.845C15.8452 31.8079 16.0705 31.7009 16.2517 31.5371C16.433 31.3734 16.5623 31.1602 16.6237 30.9237C16.8837 29.9183 17.2826 28.9541 17.8087 28.0588C17.9332 27.848 17.9929 27.6054 17.9807 27.3609C17.9685 27.1165 17.8848 26.881 17.74 26.6838L15.8837 24.1512L17.9025 22.1338L20.4338 23.9887C20.6309 24.1337 20.8663 24.2177 21.1107 24.2301C21.3552 24.2426 21.5979 24.183 21.8088 24.0587C22.7045 23.5323 23.6692 23.133 24.675 22.8725C24.9117 22.8113 25.1252 22.6821 25.2891 22.5008C25.4531 22.3195 25.5603 22.0941 25.5975 21.8525L26.0713 18.75H28.9287L29.405 21.8537C29.4422 22.0953 29.5494 22.3207 29.7134 22.502C29.8773 22.6833 30.0908 22.8126 30.3275 22.8737C31.3333 23.1343 32.298 23.5335 33.1938 24.06C33.4046 24.1842 33.6473 24.2438 33.8918 24.2314C34.1362 24.2189 34.3716 24.135 34.5688 23.99L37.1 22.135L39.1187 24.1525L37.2625 26.685C37.1177 26.8823 37.034 27.1178 37.0218 27.3622C37.0096 27.6066 37.0693 27.8492 37.1937 28.06C37.7199 28.9553 38.1188 29.9196 38.3787 30.925C38.4402 31.1614 38.5695 31.3747 38.7508 31.5384C38.932 31.7021 39.1573 31.8091 39.3987 31.8462L42.5 32.3225V35.1775L39.3962 35.655C39.1548 35.6921 38.9295 35.7991 38.7483 35.9629C38.567 36.1266 38.4377 36.3398 38.3763 36.5763C38.1163 37.5817 37.7174 38.5459 37.1912 39.4412C37.0671 39.6519 37.0075 39.8943 37.0197 40.1384C37.0319 40.3826 37.1155 40.6178 37.26 40.815H37.2638Z" fill="#4661AD"/>
<path d="M27.5 25C25.7694 25 24.0777 25.5132 22.6388 26.4746C21.1998 27.4361 20.0783 28.8027 19.4161 30.4015C18.7538 32.0004 18.5805 33.7597 18.9181 35.457C19.2558 37.1544 20.0891 38.7135 21.3128 39.9372C22.5365 41.1609 24.0956 41.9942 25.793 42.3319C27.4903 42.6695 29.2496 42.4962 30.8485 41.8339C32.4473 41.1717 33.8139 40.0502 34.7754 38.6112C35.7368 37.1723 36.25 35.4806 36.25 33.75C36.2474 31.4302 35.3246 29.2061 33.6843 27.5657C32.0439 25.9254 29.8198 25.0026 27.5 25ZM27.5 40C26.2639 40 25.0555 39.6334 24.0277 38.9467C22.9999 38.2599 22.1988 37.2838 21.7258 36.1418C21.2527 34.9997 21.1289 33.7431 21.3701 32.5307C21.6113 31.3183 22.2065 30.2047 23.0806 29.3306C23.9547 28.4565 25.0683 27.8612 26.2807 27.6201C27.4931 27.3789 28.7497 27.5027 29.8918 27.9758C31.0338 28.4488 32.0099 29.2499 32.6967 30.2777C33.3834 31.3055 33.75 32.5139 33.75 33.75C33.748 35.407 33.0889 36.9955 31.9172 38.1672C30.7456 39.3389 29.157 39.998 27.5 40Z" fill="#4661AD"/>
<path d="M77.69 57.515L74.315 56.995C74.095 56.3168 73.822 55.6568 73.4987 55.0212L75.5188 52.2713C75.6957 52.0302 75.7804 51.7337 75.7575 51.4356C75.7346 51.1374 75.6055 50.8574 75.3937 50.6462L71.8587 47.1112C71.6476 46.8995 71.3676 46.7704 71.0694 46.7475C70.7713 46.7246 70.4748 46.8093 70.2337 46.9863L67.4837 49.0063C66.8447 48.6823 66.1815 48.4085 65.5 48.1875L64.98 44.8125C64.9353 44.5178 64.7868 44.2489 64.5613 44.054C64.3357 43.8592 64.048 43.7514 63.75 43.75H58.75C58.4515 43.7501 58.1629 43.8571 57.9364 44.0515C57.7098 44.2459 57.5604 44.515 57.515 44.81L56.995 48.185C56.317 48.4057 55.6571 48.6786 55.0212 49.0013L52.2713 46.9812C52.0302 46.8043 51.7337 46.7196 51.4356 46.7425C51.1374 46.7654 50.8574 46.8945 50.6462 47.1063L47.1112 50.6413C46.8995 50.8524 46.7704 51.1324 46.7475 51.4306C46.7246 51.7287 46.8093 52.0252 46.9863 52.2663L49.0063 55.0163C48.6816 55.655 48.4079 56.3183 48.1875 57L44.8125 57.52C44.5178 57.5647 44.2489 57.7132 44.054 57.9387C43.8592 58.1643 43.7514 58.452 43.75 58.75V63.75C43.7501 64.0485 43.8571 64.3371 44.0515 64.5636C44.2459 64.7902 44.515 64.9396 44.81 64.985L48.185 65.505C48.405 66.1833 48.678 66.8432 49.0013 67.4788L46.9812 70.2288C46.8043 70.4698 46.7196 70.7663 46.7425 71.0644C46.7654 71.3626 46.8945 71.6426 47.1063 71.8538L50.6413 75.3888C50.8524 75.6005 51.1324 75.7296 51.4306 75.7525C51.7287 75.7754 52.0252 75.6907 52.2662 75.5138L55.0163 73.4937C55.6521 73.8164 56.312 74.0893 56.99 74.31L57.51 77.685C57.5544 77.9818 57.7041 78.2527 57.9318 78.4483C58.1595 78.6438 58.4499 78.7509 58.75 78.75H63.75C64.0485 78.7499 64.3371 78.643 64.5636 78.4485C64.7902 78.2541 64.9396 77.985 64.985 77.69L65.505 74.315C66.183 74.0943 66.8429 73.8214 67.4788 73.4988L70.2287 75.5188C70.4698 75.6957 70.7663 75.7804 71.0644 75.7575C71.3626 75.7346 71.6426 75.6055 71.8538 75.3938L75.3888 71.8588C75.6005 71.6476 75.7296 71.3676 75.7525 71.0694C75.7754 70.7713 75.6907 70.4748 75.5137 70.2338L73.4937 67.4838C73.8184 66.845 74.0921 66.1817 74.3125 65.5L77.6875 64.98C77.9822 64.9353 78.2511 64.7868 78.446 64.5613C78.6408 64.3357 78.7486 64.048 78.75 63.75V58.75C78.7499 58.4515 78.6429 58.1629 78.4485 57.9364C78.2541 57.7098 77.985 57.5604 77.69 57.515ZM76.25 62.6775L73.1462 63.155C72.9048 63.1921 72.6795 63.2991 72.4983 63.4629C72.317 63.6266 72.1877 63.8398 72.1263 64.0763C71.8663 65.0817 71.4674 66.0459 70.9412 66.9413C70.8168 67.152 70.7571 67.3946 70.7693 67.6391C70.7815 67.8835 70.8652 68.119 71.01 68.3163L72.8662 70.8488L70.8475 72.8663L68.3162 71.0112C68.1191 70.8663 67.8837 70.7823 67.6393 70.7699C67.3948 70.7574 67.1521 70.817 66.9413 70.9412C66.0455 71.4677 65.0808 71.867 64.075 72.1275C63.8383 72.1887 63.6248 72.3179 63.4609 72.4992C63.2969 72.6805 63.1897 72.9059 63.1525 73.1475L62.6788 76.25H59.8212L59.345 73.1462C59.3078 72.9047 59.2006 72.6793 59.0366 72.498C58.8727 72.3167 58.6592 72.1875 58.4225 72.1263C57.4167 71.8657 56.452 71.4665 55.5562 70.94C55.3454 70.8158 55.1027 70.7562 54.8582 70.7686C54.6138 70.7811 54.3784 70.865 54.1813 71.01L51.65 72.865L49.6313 70.8475L51.4875 68.315C51.6323 68.1177 51.716 67.8822 51.7282 67.6378C51.7405 67.3934 51.6806 67.1508 51.5562 66.94C51.0301 66.0447 50.6312 65.0804 50.3713 64.075C50.3098 63.8386 50.1805 63.6253 49.9992 63.4616C49.818 63.2979 49.5927 63.1909 49.3512 63.1537L46.25 62.6775V59.8225L49.3538 59.345C49.5952 59.3079 49.8205 59.2009 50.0017 59.0371C50.183 58.8734 50.3123 58.6602 50.3737 58.4237C50.6337 57.4183 51.0326 56.4541 51.5588 55.5587C51.6832 55.348 51.7429 55.1054 51.7307 54.8609C51.7185 54.6165 51.6348 54.381 51.49 54.1838L49.6338 51.6512L51.6525 49.6338L54.1838 51.4888C54.3809 51.6337 54.6163 51.7177 54.8607 51.7301C55.1052 51.7426 55.3479 51.683 55.5587 51.5588C56.4545 51.0323 57.4192 50.633 58.425 50.3725C58.6617 50.3113 58.8752 50.1821 59.0391 50.0008C59.2031 49.8195 59.3103 49.5941 59.3475 49.3525L59.8212 46.25H62.6788L63.155 49.3538C63.1922 49.5953 63.2994 49.8207 63.4634 50.002C63.6273 50.1833 63.8408 50.3126 64.0775 50.3738C65.0833 50.6343 66.048 51.0335 66.9438 51.56C67.1546 51.6842 67.3973 51.7438 67.6418 51.7314C67.8862 51.7189 68.1216 51.635 68.3187 51.49L70.85 49.635L72.8687 51.6525L71.0125 54.185C70.8677 54.3823 70.784 54.6178 70.7718 54.8622C70.7596 55.1066 70.8194 55.3492 70.9438 55.56C71.4699 56.4553 71.8688 57.4196 72.1287 58.425C72.1902 58.6614 72.3195 58.8747 72.5008 59.0384C72.682 59.2021 72.9073 59.3092 73.1488 59.3463L76.25 59.8225V62.6775Z" fill="#4661AD"/>
<path d="M61.25 52.5C59.5194 52.5 57.8277 53.0132 56.3888 53.9746C54.9498 54.9361 53.8283 56.3027 53.1661 57.9015C52.5038 59.5004 52.3305 61.2597 52.6681 62.957C53.0058 64.6544 53.8391 66.2135 55.0628 67.4372C56.2865 68.6609 57.8456 69.4942 59.543 69.8319C61.2403 70.1695 62.9996 69.9962 64.5985 69.3339C66.1973 68.6717 67.5639 67.5502 68.5254 66.1112C69.4868 64.6723 70 62.9806 70 61.25C69.9974 58.9302 69.0746 56.7061 67.4343 55.0657C65.7939 53.4254 63.5698 52.5026 61.25 52.5ZM61.25 67.5C60.0139 67.5 58.8055 67.1334 57.7777 66.4467C56.7499 65.7599 55.9488 64.7838 55.4758 63.6418C55.0027 62.4997 54.8789 61.2431 55.1201 60.0307C55.3613 58.8183 55.9565 57.7047 56.8306 56.8306C57.7047 55.9565 58.8183 55.3612 60.0307 55.1201C61.2431 54.8789 62.4997 55.0027 63.6418 55.4758C64.7838 55.9488 65.7599 56.7499 66.4467 57.7777C67.1334 58.8055 67.5 60.0139 67.5 61.25C67.498 62.907 66.8389 64.4955 65.6672 65.6672C64.4956 66.8389 62.907 67.498 61.25 67.5Z" fill="#4661AD"/>
<path d="M38.8875 62.5075L37.0325 62.3012L38.2 60.8437C38.392 60.6033 38.4887 60.3005 38.4714 59.9933C38.4541 59.6861 38.3241 59.3961 38.1063 59.1787L34.5712 55.6437C34.3538 55.4261 34.0636 55.2964 33.7564 55.2793C33.4492 55.2622 33.1465 55.3591 32.9062 55.5513L31.4487 56.7175L31.2425 54.8625C31.2086 54.5566 31.0632 54.274 30.8339 54.0687C30.6046 53.8635 30.3077 53.75 30 53.75H25C24.6923 53.75 24.3954 53.8635 24.1661 54.0687C23.9368 54.274 23.7914 54.5566 23.7575 54.8625L23.5512 56.7175L22.0937 55.5513C21.8535 55.3591 21.5508 55.2622 21.2436 55.2793C20.9364 55.2964 20.6462 55.4261 20.4288 55.6437L16.8938 59.1787C16.6759 59.3961 16.5459 59.6861 16.5286 59.9933C16.5113 60.3005 16.608 60.6033 16.8 60.8437L17.9675 62.3012L16.1125 62.5075C15.8066 62.5414 15.524 62.6868 15.3187 62.9161C15.1135 63.1454 15 63.4423 15 63.75V68.75C15 69.0577 15.1135 69.3546 15.3187 69.5839C15.524 69.8132 15.8066 69.9586 16.1125 69.9925L17.9675 70.1987L16.8 71.6562C16.608 71.8967 16.5113 72.1995 16.5286 72.5067C16.5459 72.8139 16.6759 73.1039 16.8938 73.3213L20.4288 76.8563C20.6462 77.0739 20.9364 77.2036 21.2436 77.2207C21.5508 77.2378 21.8535 77.1409 22.0937 76.9487L23.5512 75.7825L23.7575 77.6375C23.7914 77.9434 23.9368 78.226 24.1661 78.4313C24.3954 78.6365 24.6923 78.75 25 78.75H30C30.3077 78.75 30.6046 78.6365 30.8339 78.4313C31.0632 78.226 31.2086 77.9434 31.2425 77.6375L31.4487 75.7825L32.9062 76.9487C33.1465 77.1409 33.4492 77.2378 33.7564 77.2207C34.0636 77.2036 34.3538 77.0739 34.5712 76.8563L38.1063 73.3213C38.3241 73.1039 38.4541 72.8139 38.4714 72.5067C38.4887 72.1995 38.392 71.8967 38.2 71.6562L37.0325 70.1987L38.8875 69.9925C39.1934 69.9586 39.476 69.8132 39.6813 69.5839C39.8865 69.3546 40 69.0577 40 68.75V63.75C40 63.4423 39.8865 63.1454 39.6813 62.9161C39.476 62.6868 39.1934 62.5414 38.8875 62.5075ZM37.5 67.6312L35.635 67.8387C35.3993 67.8649 35.1759 67.9575 34.9909 68.1058C34.8058 68.254 34.6668 68.4519 34.59 68.6763C34.4882 68.9753 34.3675 69.2675 34.2287 69.5512C34.1259 69.7632 34.085 70 34.1109 70.2342C34.1368 70.4684 34.2283 70.6906 34.375 70.875L35.5487 72.3413L33.5963 74.295L32.125 73.125C31.94 72.9767 31.7165 72.884 31.4808 72.8579C31.2451 72.8318 31.0068 72.8733 30.7938 72.9775C30.5101 73.1169 30.2179 73.238 29.9187 73.34C29.6946 73.417 29.497 73.5561 29.349 73.7411C29.2009 73.9262 29.1085 74.1495 29.0825 74.385L28.875 76.25H26.125L25.9163 74.385C25.8902 74.1495 25.7978 73.9262 25.6498 73.7411C25.5017 73.5561 25.3041 73.417 25.08 73.34C24.7809 73.238 24.4886 73.1169 24.205 72.9775C23.9921 72.8735 23.7541 72.8322 23.5186 72.8583C23.2831 72.8844 23.0599 72.9769 22.875 73.125L21.4075 74.2975L19.455 72.3438L20.625 70.875C20.7732 70.6896 20.8655 70.4658 20.8912 70.2298C20.9169 69.9939 20.8748 69.7555 20.77 69.5425C20.6312 69.2588 20.5106 68.9665 20.4087 68.6675C20.3319 68.4432 20.1929 68.2453 20.0079 68.097C19.8228 67.9487 19.5994 67.8561 19.3638 67.83L17.5 67.6312V64.875L19.365 64.6675C19.6007 64.6414 19.8241 64.5488 20.0091 64.4005C20.1942 64.2522 20.3332 64.0543 20.41 63.83C20.5118 63.531 20.6325 63.2387 20.7713 62.955C20.8754 62.7422 20.917 62.5043 20.8911 62.2688C20.8652 62.0333 20.7729 61.81 20.625 61.625L19.4513 60.1587L21.4037 58.205L22.875 59.375C23.06 59.5233 23.2835 59.616 23.5192 59.6421C23.7549 59.6682 23.9932 59.6267 24.2062 59.5225C24.4899 59.3831 24.7821 59.262 25.0813 59.16C25.3054 59.083 25.503 58.9439 25.651 58.7589C25.7991 58.5738 25.8915 58.3505 25.9175 58.115L26.125 56.25H28.875L29.0837 58.115C29.1098 58.3505 29.2022 58.5738 29.3502 58.7589C29.4983 58.9439 29.6959 59.083 29.92 59.16C30.2191 59.262 30.5114 59.3831 30.795 59.5225C31.0079 59.6265 31.2459 59.6678 31.4814 59.6417C31.7169 59.6156 31.9401 59.5231 32.125 59.375L33.5925 58.2025L35.545 60.1562L34.375 61.625C34.2268 61.8104 34.1345 62.0342 34.1088 62.2702C34.0831 62.5061 34.1252 62.7445 34.23 62.9575C34.3688 63.2412 34.4894 63.5335 34.5913 63.8325C34.6681 64.0568 34.8071 64.2547 34.9921 64.403C35.1772 64.5513 35.4006 64.6439 35.6363 64.67L37.5 64.875V67.6312Z" fill="#4661AD"/>
<path d="M27.5 60C26.2639 60 25.0555 60.3666 24.0277 61.0533C22.9999 61.7401 22.1988 62.7162 21.7258 63.8582C21.2527 65.0003 21.1289 66.2569 21.3701 67.4693C21.6113 68.6817 22.2065 69.7953 23.0806 70.6694C23.9547 71.5435 25.0683 72.1388 26.2807 72.3799C27.4931 72.6211 28.7497 72.4973 29.8918 72.0243C31.0338 71.5512 32.0099 70.7501 32.6967 69.7223C33.3834 68.6945 33.75 67.4861 33.75 66.25C33.748 64.593 33.0889 63.0045 31.9172 61.8328C30.7456 60.6611 29.157 60.002 27.5 60ZM27.5 70C26.7583 70 26.0333 69.7801 25.4166 69.368C24.7999 68.956 24.3193 68.3703 24.0355 67.6851C23.7516 66.9998 23.6774 66.2458 23.8221 65.5184C23.9668 64.791 24.3239 64.1228 24.8484 63.5984C25.3728 63.0739 26.041 62.7168 26.7684 62.5721C27.4958 62.4274 28.2498 62.5016 28.9351 62.7855C29.6203 63.0693 30.206 63.5499 30.618 64.1666C31.0301 64.7833 31.25 65.5083 31.25 66.25C31.25 67.2446 30.8549 68.1984 30.1516 68.9017C29.4484 69.6049 28.4946 70 27.5 70Z" fill="#4661AD"/>
</svg>
