<svg width="80" height="80" viewBox="0 0 80 80" fill="none" xmlns="http://www.w3.org/2000/svg">
<path d="M54.4902 67.0968H46.8373V60.0697L58.1726 52.9032L46.8373 45.7368V37.4194H54.4902V27.0968H46.8373V18.0645H57.0412V0H34.0824V18.0645H44.2863V27.0968H36.6334V30.9677H25.1539V33.5484H36.6334V37.4194H44.2863V45.7368L32.951 52.9032L44.2863 60.0697V67.0968H36.6334C34.5237 67.0968 32.8069 68.8335 32.8069 70.9677V76.129C32.8069 78.2632 34.5237 80 36.6334 80H54.4902C56.5999 80 58.3167 78.2632 58.3167 76.129V70.9677C58.3167 68.8335 56.5999 67.0968 54.4902 67.0968ZM36.6334 2.58065H54.4902V15.4839H36.6334V2.58065ZM39.1843 29.6774H51.9392V34.8387H39.1843V29.6774ZM45.5618 47.9729L53.3588 52.9032L45.5618 57.8335L37.7647 52.9032L45.5618 47.9729ZM55.7657 76.129C55.7657 76.84 55.193 77.4193 54.4902 77.4193H36.6334C35.9306 77.4193 35.3579 76.84 35.3579 76.129V70.9677C35.3579 70.2568 35.9306 69.6774 36.6334 69.6774H54.4902C55.193 69.6774 55.7657 70.2568 55.7657 70.9677V76.129Z" fill="#4661AD"/>
<path d="M22.9767 69.2995L25.9014 72.2582H14.7153C14.3301 71.1653 13.4794 70.3046 12.399 69.915V42.5806H9.84806V69.915C8.36721 70.4492 7.29707 71.8685 7.29707 73.5485C7.29707 75.6827 9.01388 77.4195 11.1235 77.4195C12.7842 77.4195 14.1873 76.3369 14.7153 74.8389H25.9014L22.9767 77.7976L24.7802 79.6221L30.784 73.5485L24.7802 67.475L22.9767 69.2995ZM11.1235 74.8389C10.4208 74.8389 9.84806 74.2595 9.84806 73.5485C9.84806 72.8376 10.4208 72.2582 11.1235 72.2582C11.8263 72.2582 12.399 72.8376 12.399 73.5485C12.399 74.2595 11.8263 74.8389 11.1235 74.8389Z" fill="#4661AD"/>
<path d="M77.449 49.2698V12.6659C78.9299 12.1317 80 10.7124 80 9.03238C80 6.89819 78.2832 5.16141 76.1735 5.16141C74.5128 5.16141 73.1098 6.24399 72.5817 7.74206H59.5921V10.3227H72.5817C72.9669 11.4156 73.8177 12.2763 74.898 12.6659V49.2711C73.8177 49.6608 72.9669 50.5215 72.5817 51.6144H63.9467L66.8714 48.6557L65.0678 46.8311L59.0641 52.9034L65.0678 58.977L66.8714 57.1524L63.9467 54.1937H72.5817C73.1098 55.6918 74.5128 56.7744 76.1735 56.7744C78.2832 56.7744 80 55.0376 80 52.9034C80 51.2234 78.9299 49.804 77.449 49.2698ZM76.1735 7.74206C76.8763 7.74206 77.449 8.32141 77.449 9.03238C77.449 9.74335 76.8763 10.3227 76.1735 10.3227C75.4707 10.3227 74.898 9.74335 74.898 9.03238C74.898 8.32141 75.4707 7.74206 76.1735 7.74206ZM76.1735 54.1937C75.4707 54.1937 74.898 53.6144 74.898 52.9034C74.898 52.1924 75.4707 51.6131 76.1735 51.6131C76.8763 51.6131 77.449 52.1924 77.449 52.9034C77.449 53.6144 76.8763 54.1937 76.1735 54.1937Z" fill="#4661AD"/>
<path d="M22.2471 32.258L11.1235 24.2207L0 32.258L11.1235 40.2954L22.2471 32.258ZM11.1235 27.3923L17.8569 32.258L11.1235 37.1238L4.39023 32.258L11.1235 27.3923Z" fill="#4661AD"/>
<path d="M39.1843 5.16141H51.9392V7.74196H39.1843V5.16141Z" fill="#4661AD"/>
<path d="M39.1843 10.3227H46.8373V12.9033H39.1843V10.3227Z" fill="#4661AD"/>
<path d="M49.3882 10.3227H51.9392V12.9033H49.3882V10.3227Z" fill="#4661AD"/>
<path d="M71.0716 72.2581H73.6226V74.8388H71.0716V72.2581Z" fill="#4661AD"/>
<path d="M65.9696 72.2581H68.5206V74.8388H65.9696V72.2581Z" fill="#4661AD"/>
<path d="M60.8677 72.2581H63.4186V74.8388H60.8677V72.2581Z" fill="#4661AD"/>
<path d="M23.8784 10.3227H26.4294V12.9033H23.8784V10.3227Z" fill="#4661AD"/>
<path d="M28.9804 10.3227H31.5314V12.9033H28.9804V10.3227Z" fill="#4661AD"/>
<path d="M18.7765 10.3227H21.3275V12.9033H18.7765V10.3227Z" fill="#4661AD"/>
</svg>
