<svg width="80" height="80" viewBox="0 0 80 80" fill="none" xmlns="http://www.w3.org/2000/svg">
<path d="M44.5839 77.8378H41.3731C41.0864 77.8378 40.8114 77.7239 40.6086 77.5212C40.4059 77.3184 40.292 77.0435 40.292 76.7567C40.292 76.47 40.4059 76.195 40.6086 75.9923C40.8114 75.7896 41.0864 75.6757 41.3731 75.6757H44.5839C44.8706 75.6757 45.1456 75.7896 45.3483 75.9923C45.5511 76.195 45.665 76.47 45.665 76.7567C45.665 77.0435 45.5511 77.3184 45.3483 77.5212C45.1456 77.7239 44.8706 77.8378 44.5839 77.8378Z" fill="#4661AD"/>
<path d="M74.5945 77.8378H52.1513C51.8646 77.8378 51.5896 77.7239 51.3869 77.5212C51.1841 77.3185 51.0702 77.0435 51.0702 76.7568C51.0702 76.47 51.1841 76.1951 51.3869 75.9923C51.5896 75.7896 51.8646 75.6757 52.1513 75.6757H74.5945C74.8813 75.6757 75.1562 75.5618 75.359 75.359C75.5617 75.1563 75.6756 74.8813 75.6756 74.5946V5.40541C75.6756 5.11869 75.5617 4.84372 75.359 4.64097C75.1562 4.43823 74.8813 4.32433 74.5945 4.32433H5.40535C5.11863 4.32433 4.84365 4.43823 4.64091 4.64097C4.43817 4.84372 4.32427 5.11869 4.32427 5.40541V74.5946C4.32427 74.8813 4.43817 75.1563 4.64091 75.359C4.84365 75.5618 5.11863 75.6757 5.40535 75.6757H23.1026C23.3894 75.6757 23.6643 75.7896 23.8671 75.9923C24.0698 76.1951 24.1837 76.47 24.1837 76.7568C24.1837 77.0435 24.0698 77.3185 23.8671 77.5212C23.6643 77.7239 23.3894 77.8378 23.1026 77.8378H5.40535C4.54519 77.8378 3.72026 77.4961 3.11203 76.8879C2.50381 76.2797 2.16211 75.4548 2.16211 74.5946V5.40541C2.16211 4.54525 2.50381 3.72032 3.11203 3.11209C3.72026 2.50387 4.54519 2.16217 5.40535 2.16217H74.5945C75.4547 2.16217 76.2796 2.50387 76.8879 3.11209C77.4961 3.72032 77.8378 4.54525 77.8378 5.40541V74.5946C77.8378 75.4548 77.4961 76.2797 76.8879 76.8879C76.2796 77.4961 75.4547 77.8378 74.5945 77.8378Z" fill="#4661AD"/>
<path d="M33.8053 77.8378H30.6702C30.3835 77.8378 30.1085 77.7239 29.9058 77.5212C29.703 77.3184 29.5891 77.0435 29.5891 76.7567C29.5891 76.47 29.703 76.195 29.9058 75.9923C30.1085 75.7896 30.3835 75.6757 30.6702 75.6757H33.8053C34.092 75.6757 34.367 75.7896 34.5698 75.9923C34.7725 76.195 34.8864 76.47 34.8864 76.7567C34.8864 77.0435 34.7725 77.3184 34.5698 77.5212C34.367 77.7239 34.092 77.8378 33.8053 77.8378Z" fill="#4661AD"/>
<path d="M11.9665 16.4195C11.1915 16.4195 10.4338 16.1897 9.78941 15.7591C9.14497 15.3285 8.64267 14.7165 8.34602 14.0005C8.04938 13.2845 7.97171 12.4966 8.12283 11.7364C8.27396 10.9762 8.64709 10.278 9.19505 9.72984C9.74301 9.18173 10.4412 8.8084 11.2013 8.65707C11.9614 8.50573 12.7494 8.58319 13.4655 8.87964C14.1816 9.17608 14.7937 9.67821 15.2245 10.3225C15.6552 10.9669 15.8852 11.7244 15.8854 12.4995C15.8846 13.5387 15.4715 14.5351 14.7367 15.27C14.002 16.0049 13.0057 16.4183 11.9665 16.4195ZM11.9665 10.7438C11.619 10.7438 11.2793 10.8469 10.9904 11.0399C10.7015 11.233 10.4763 11.5075 10.3434 11.8285C10.2105 12.1496 10.1757 12.5029 10.2436 12.8437C10.3115 13.1845 10.4789 13.4975 10.7247 13.7432C10.9705 13.9888 11.2836 14.156 11.6245 14.2237C11.9653 14.2914 12.3186 14.2564 12.6396 14.1233C12.9605 13.9901 13.2348 13.7648 13.4277 13.4758C13.6206 13.1867 13.7235 12.847 13.7233 12.4995C13.7224 12.0339 13.537 11.5877 13.2077 11.2586C12.8784 10.9295 12.4321 10.7444 11.9665 10.7438Z" fill="#4661AD"/>
<path d="M23.0476 16.4195C22.2725 16.4195 21.5149 16.1897 20.8705 15.7591C20.226 15.3285 19.7237 14.7165 19.4271 14.0005C19.1304 13.2845 19.0528 12.4966 19.2039 11.7364C19.355 10.9762 19.7281 10.278 20.2761 9.72984C20.8241 9.18173 21.5223 8.8084 22.2824 8.65707C23.0425 8.50573 23.8304 8.58319 24.5465 8.87964C25.2626 9.17608 25.8748 9.67821 26.3055 10.3225C26.7363 10.9669 26.9663 11.7244 26.9665 12.4995C26.9656 13.5387 26.5525 14.5351 25.8178 15.27C25.0831 16.0049 24.0868 16.4183 23.0476 16.4195ZM23.0476 10.7438C22.7001 10.7438 22.3604 10.8469 22.0715 11.0399C21.7825 11.233 21.5574 11.5075 21.4244 11.8285C21.2915 12.1496 21.2568 12.5029 21.3247 12.8437C21.3925 13.1845 21.56 13.4975 21.8058 13.7432C22.0515 13.9888 22.3647 14.156 22.7055 14.2237C23.0464 14.2914 23.3996 14.2564 23.7206 14.1233C24.0416 13.9901 24.3159 13.7648 24.5088 13.4758C24.7017 13.1867 24.8046 12.847 24.8043 12.4995C24.8035 12.0339 24.6181 11.5877 24.2888 11.2586C23.9595 10.9295 23.5131 10.7444 23.0476 10.7438Z" fill="#4661AD"/>
<path d="M34.1286 16.4195C33.3536 16.4195 32.596 16.1897 31.9515 15.7591C31.3071 15.3285 30.8048 14.7165 30.5081 14.0005C30.2115 13.2845 30.1338 12.4966 30.2849 11.7364C30.4361 10.9762 30.8092 10.278 31.3572 9.72984C31.9051 9.18173 32.6033 8.8084 33.3634 8.65707C34.1236 8.50573 34.9115 8.58319 35.6276 8.87964C36.3437 9.17608 36.9558 9.67821 37.3866 10.3225C37.8173 10.9669 38.0473 11.7244 38.0476 12.4995C38.0467 13.5387 37.6336 14.5351 36.8989 15.27C36.1641 16.0049 35.1678 16.4183 34.1286 16.4195ZM34.1286 10.7438C33.7811 10.7438 33.4414 10.8469 33.1525 11.0399C32.8636 11.233 32.6384 11.5075 32.5055 11.8285C32.3726 12.1496 32.3378 12.5029 32.4057 12.8437C32.4736 13.1845 32.641 13.4975 32.8868 13.7432C33.1326 13.9888 33.4457 14.156 33.7866 14.2237C34.1274 14.2914 34.4807 14.2564 34.8017 14.1233C35.1227 13.9901 35.3969 13.7648 35.5899 13.4758C35.7828 13.1867 35.8856 12.847 35.8854 12.4995C35.8845 12.0339 35.6991 11.5877 35.3698 11.2586C35.0405 10.9295 34.5942 10.7444 34.1286 10.7438Z" fill="#4661AD"/>
<path d="M76.7567 21.6216H3.24319C2.95647 21.6216 2.68149 21.5077 2.47875 21.305C2.27601 21.1022 2.16211 20.8273 2.16211 20.5406C2.16211 20.2538 2.27601 19.9789 2.47875 19.7761C2.68149 19.5734 2.95647 19.4595 3.24319 19.4595H76.7567C77.0434 19.4595 77.3184 19.5734 77.5211 19.7761C77.7239 19.9789 77.8378 20.2538 77.8378 20.5406C77.8378 20.8273 77.7239 21.1022 77.5211 21.305C77.3184 21.5077 77.0434 21.6216 76.7567 21.6216Z" fill="#4661AD"/>
<path d="M34.1934 63.7838C34.0493 63.7841 33.9066 63.755 33.774 63.6984C33.5098 63.5872 33.3006 63.3757 33.1924 63.1103C33.0841 62.845 33.0857 62.5475 33.1967 62.2833L45.0345 34.1751C45.1458 33.9108 45.3575 33.7015 45.6231 33.5932C45.8887 33.4849 46.1864 33.4866 46.4507 33.5978C46.7151 33.7091 46.9244 33.9208 47.0327 34.1864C47.141 34.452 47.1393 34.7497 47.028 35.0141L35.1902 63.1222C35.1076 63.3183 34.969 63.4857 34.7917 63.6034C34.6144 63.7211 34.4063 63.7839 34.1934 63.7838Z" fill="#4661AD"/>
<path d="M50.0259 57.6303C49.8017 57.6306 49.583 57.5612 49.4 57.4318C49.217 57.3023 49.0787 57.1192 49.0044 56.9077C48.9301 56.6962 48.9233 56.4668 48.9851 56.2513C49.0468 56.0358 49.1741 55.8449 49.3492 55.7049L57.3167 49.3265L49.6216 43.2043C49.4994 43.1205 49.3957 43.0124 49.317 42.8868C49.2384 42.7612 49.1864 42.6207 49.1643 42.4742C49.1422 42.3276 49.1504 42.1781 49.1885 42.0349C49.2267 41.8916 49.2938 41.7578 49.3859 41.6416C49.4779 41.5254 49.5928 41.4294 49.7235 41.3596C49.8542 41.2897 49.9979 41.2474 50.1456 41.2354C50.2933 41.2234 50.442 41.2419 50.5822 41.2897C50.7225 41.3376 50.8515 41.4137 50.961 41.5135L59.7178 48.4789C59.8447 48.5802 59.9471 48.7087 60.0175 48.855C60.0878 49.0012 60.1244 49.1615 60.1244 49.3238C60.1244 49.4861 60.0878 49.6463 60.0175 49.7926C59.9471 49.9389 59.8447 50.0674 59.7178 50.1687L50.7027 57.3935C50.5106 57.5471 50.2719 57.6306 50.0259 57.6303Z" fill="#4661AD"/>
<path d="M29.974 57.6303C29.7288 57.6301 29.4909 57.5466 29.2994 57.3935L20.2745 50.1621C20.1477 50.0609 20.0452 49.9323 19.9749 49.7861C19.9045 49.6398 19.8679 49.4796 19.8679 49.3173C19.8679 49.155 19.9045 48.9947 19.9749 48.8485C20.0452 48.7022 20.1477 48.5737 20.2745 48.4724L29.0313 41.507C29.1423 41.4178 29.2699 41.3515 29.4067 41.3118C29.5435 41.2721 29.6868 41.2598 29.8284 41.2756C29.9699 41.2915 30.107 41.3351 30.2316 41.4041C30.3562 41.4731 30.466 41.566 30.5546 41.6776C30.6432 41.7891 30.7089 41.917 30.7479 42.054C30.7869 42.191 30.7984 42.3344 30.7818 42.4759C30.7652 42.6173 30.7209 42.7541 30.6512 42.8784C30.5816 43.0027 30.4881 43.112 30.3761 43.2L22.6756 49.3211L30.6432 55.6994C30.8182 55.8394 30.9455 56.0304 31.0072 56.2459C31.069 56.4614 31.0622 56.6908 30.9879 56.9023C30.9136 57.1137 30.7753 57.2969 30.5923 57.4264C30.4093 57.5558 30.1906 57.6252 29.9664 57.6249L29.974 57.6303Z" fill="#4661AD"/>
</svg>
