<svg width="109" height="72" viewBox="0 0 109 72" fill="none" xmlns="http://www.w3.org/2000/svg">
<g clip-path="url(#clip0)">
<path d="M61.1062 25.513C60.6963 25.1502 60.0707 25.1883 59.7079 25.5982C59.346 26.0071 59.3841 26.6326 59.793 26.9955C60.2029 27.3574 60.8284 27.3193 61.1913 26.9103C61.5532 26.5005 61.5151 25.8749 61.1062 25.513Z" fill="white"/>
<path d="M72.9167 12.1689C70.8681 10.3557 67.7422 10.5461 65.9288 12.5947C64.1203 14.6379 64.3112 17.7725 66.3549 19.5826C68.3988 21.3906 71.5334 21.2004 73.3424 19.1566C75.1555 17.1082 74.9655 13.9822 72.9167 12.1689ZM71.8598 17.8442C70.7747 19.0702 68.8938 19.1848 67.6673 18.0998C66.4411 17.0138 66.3264 15.1329 67.4116 13.907C68.4995 12.678 70.3751 12.5635 71.6043 13.6515C72.8334 14.7393 72.9478 16.615 71.8598 17.8442Z" fill="white"/>
<path d="M83.4156 0.307027C83.2097 0.124869 82.9385 0.0358617 82.6638 0.0630128C82.4408 0.0846311 77.1339 0.622628 70.9461 3.24316C65.9877 5.34116 61.9199 8.16022 58.8558 11.6221C58.1692 12.3978 57.5049 13.2165 56.8732 14.0634C53.5312 12.3609 50.9822 13.1139 49.4011 14.0882C45.7607 16.3314 43.7646 21.9416 44.0029 25.8529C44.0275 26.2525 44.2903 26.5982 44.6688 26.7286C44.7942 26.7718 44.9241 26.7886 45.0514 26.7809C45.3086 26.7652 45.5552 26.6493 45.7327 26.4488C47.5964 24.3433 50.0518 24.3183 50.8579 24.3747L51.225 24.6997C50.6427 26.3618 50.1923 28.0068 49.8854 29.5987C49.7747 30.1748 49.8602 30.772 50.1096 31.3079C49.1849 31.8044 48.3062 32.5041 47.5556 33.352C45.1669 36.0509 45.0281 42.2817 45.0234 42.5456C45.0182 42.8353 45.1401 43.1127 45.357 43.3047C45.5544 43.4793 45.8124 43.5675 46.0733 43.5516C46.0991 43.55 46.1251 43.5474 46.1509 43.5438C46.4123 43.5071 52.5804 42.6128 54.9692 39.9141C55.7194 39.0665 56.3072 38.1094 56.6877 37.1315C57.2829 37.3246 57.8829 37.3163 58.4125 37.1457C59.9546 36.6479 61.5326 36.0013 63.1119 35.2214L63.4791 35.5464C63.6328 36.3397 63.9061 38.78 62.0425 40.8853C61.7772 41.1852 61.7185 41.6154 61.894 41.9752C62.0694 42.3352 62.4443 42.554 62.8441 42.5296C66.7553 42.2913 72.0816 39.6288 73.8663 35.743C74.6413 34.0555 75.0793 31.4339 72.9836 28.3232C73.7472 27.5937 74.4793 26.835 75.1662 26.0589C78.2304 22.5971 80.5347 18.2171 82.0151 13.041C83.8651 6.58057 83.7547 1.24748 83.7491 1.02366C83.7423 0.748837 83.6214 0.489289 83.4156 0.307027ZM46.0828 23.5928C46.5157 20.5845 48.1 17.2159 50.4402 15.7738C52.0041 14.8102 53.7763 14.7873 55.7177 15.7013C54.2454 17.9039 52.9921 20.2566 51.9782 22.7221C51.9629 22.7139 51.7714 22.5012 51.4364 22.4468C51.2986 22.4243 48.6497 22.0213 46.0828 23.5928ZM53.4865 38.6017C52.2105 40.0432 49.0667 40.9541 47.0699 41.3694C47.2399 39.3369 47.7624 36.1059 49.0383 34.6644C49.7528 33.8571 50.6 33.2265 51.467 32.8475L54.9951 35.9704C54.7242 36.877 54.2011 37.7944 53.4865 38.6017ZM57.8049 35.2611C57.5233 35.3517 57.1855 35.2644 56.9243 35.0335C55.568 33.833 55.0374 33.3633 54.8709 33.2161C54.5656 32.9459 53.8169 32.2832 52.1633 30.8194C51.9018 30.5874 51.7741 30.2628 51.8297 29.9729C52.0711 28.7209 52.408 27.431 52.8336 26.1235L61.5034 33.7975C60.2571 34.3788 59.0178 34.8697 57.8049 35.2611ZM72.0672 34.9166C70.9198 37.4145 67.7686 39.3962 64.8353 40.191C65.6738 38.3508 65.7444 36.0691 65.3145 34.7143C65.2147 34.3997 64.9964 34.2517 64.9836 34.2335C67.3076 32.9278 69.4906 31.3981 71.4984 29.6692C72.6413 31.4855 72.8336 33.2476 72.0672 34.9166ZM73.6837 24.7466C72.8475 25.6912 71.9411 26.6098 70.9896 27.4769C68.7021 29.5603 66.1545 31.3622 63.4094 32.8403L53.5523 24.1156C54.6861 21.2112 56.1654 18.4636 57.9556 15.9405C58.7013 14.89 59.503 13.8786 60.3388 12.9344C63.088 9.82839 66.7243 7.2682 71.1492 5.31519L79.9341 13.091C78.5329 17.7202 76.4332 21.6404 73.6837 24.7466ZM80.5181 10.9634L73.1901 4.47719C76.8821 3.07906 80.1292 2.44191 81.7537 2.18502C81.6959 3.82899 81.4576 7.12946 80.5181 10.9634Z" fill="white"/>
<path d="M59.3323 42.4529C58.9227 42.0905 58.297 42.1289 57.9347 42.5383L55.3104 45.5041C54.9481 45.9136 54.9863 46.5394 55.3957 46.9016C55.8053 47.2639 56.4311 47.2258 56.7933 46.8163L59.4176 43.8504C59.7799 43.4409 59.7417 42.8152 59.3323 42.4529Z" fill="white"/>
<path d="M44.5059 29.3295C44.0966 28.967 43.471 29.0051 43.1084 29.4144L40.4831 32.3794C40.1206 32.7887 40.1586 33.4145 40.5679 33.7769C40.9771 34.1392 41.6028 34.1015 41.9655 33.692L44.5908 30.727C44.9533 30.3177 44.9153 29.692 44.5059 29.3295Z" fill="white"/>
<path d="M52.4301 44.2771C52.0209 43.9147 51.3951 43.9528 51.0326 44.3621L44.7464 51.4631C44.3839 51.8725 44.422 52.4982 44.8314 52.8606C45.2406 53.223 45.8665 53.185 46.2289 52.7755L52.5152 45.6746C52.8777 45.2652 52.8395 44.6394 52.4301 44.2771Z" fill="white"/>
<path d="M44.5245 44.7587C44.1152 44.3964 43.4894 44.4345 43.127 44.8438L36.8407 51.9447C36.4783 52.3542 36.5164 52.9799 36.9258 53.3423C37.335 53.7047 37.9608 53.6667 38.3233 53.2572L44.6096 46.1563C44.972 45.7469 44.9339 45.1211 44.5245 44.7587Z" fill="white"/>
<path d="M43.5332 36.402C43.1239 36.0397 42.498 36.0778 42.1357 36.4872L35.8505 43.5891C35.4881 43.9986 35.5262 44.6242 35.9357 44.9867C36.3451 45.349 36.9709 45.3109 37.3332 44.9014L43.6184 37.7996C43.9808 37.3901 43.9427 36.7644 43.5332 36.402Z" fill="white"/>
<path d="M65.0427 21.0645C64.6332 20.7021 64.0077 20.7402 63.6451 21.1497L62.3329 22.6321C61.9705 23.0415 62.0087 23.6672 62.4181 24.0297C62.8276 24.3921 63.4532 24.354 63.8157 23.9446L65.1279 22.4621C65.4902 22.0527 65.4521 21.427 65.0427 21.0645Z" fill="white"/>
</g>
<path d="M10.4668 54.0054C10.3757 54.0966 10.2845 54.1877 10.1934 54.2789C10.1022 54.3635 10.0306 54.4709 9.97852 54.6011C9.90039 54.6142 9.81901 54.6304 9.73438 54.65C9.64974 54.6695 9.56836 54.6793 9.49023 54.6793C9.43815 54.6793 9.38607 54.6727 9.33398 54.6597C9.2819 54.6402 9.22982 54.6304 9.17773 54.6304C9.13216 54.6304 9.10938 54.6532 9.10938 54.6988C9.10938 54.7444 9.09635 54.7802 9.07031 54.8062C9.01823 54.7867 8.96289 54.7737 8.9043 54.7672C8.8457 54.7606 8.78711 54.7574 8.72852 54.7574C8.5918 54.7574 8.45508 54.7802 8.31836 54.8257C8.18815 54.8648 8.05794 54.9136 7.92773 54.9722C7.79753 55.0243 7.66732 55.0797 7.53711 55.1382C7.4069 55.1968 7.27344 55.2424 7.13672 55.275C7.14323 55.2815 7.14648 55.2977 7.14648 55.3238C7.14648 55.3694 7.13346 55.4084 7.10742 55.441C7.08138 55.467 7.06836 55.5028 7.06836 55.5484V55.5777C7.14648 55.747 7.22461 55.9097 7.30273 56.066C7.38086 56.2222 7.45573 56.385 7.52734 56.5543C7.56641 56.6389 7.59896 56.7203 7.625 56.7984C7.65104 56.8765 7.68034 56.9612 7.71289 57.0523C7.72591 57.1044 7.7487 57.1402 7.78125 57.1597C7.8138 57.1727 7.84635 57.1955 7.87891 57.2281C7.86589 57.2672 7.85938 57.303 7.85938 57.3355C7.85938 57.4592 7.88867 57.5797 7.94727 57.6968C8.00586 57.8075 8.03516 57.9214 8.03516 58.0386C8.03516 58.0712 8.02865 58.1135 8.01562 58.1656C8.09375 58.2763 8.14909 58.4032 8.18164 58.5464C8.21419 58.6897 8.24349 58.8362 8.26953 58.9859C8.29557 59.1291 8.32161 59.2724 8.34766 59.4156C8.38021 59.5523 8.43555 59.676 8.51367 59.7867C8.4681 59.8648 8.4388 59.9494 8.42578 60.0406C8.41276 60.1252 8.40625 60.2131 8.40625 60.3043C8.40625 60.5126 8.42578 60.7242 8.46484 60.939C8.51042 61.1474 8.5332 61.3557 8.5332 61.564C8.5332 61.7073 8.51693 61.8244 8.48438 61.9156C8.4974 62.0132 8.52995 62.0849 8.58203 62.1304C8.55599 62.176 8.54622 62.2313 8.55273 62.2964C8.55924 62.355 8.54622 62.4071 8.51367 62.4527C8.54622 62.5829 8.5625 62.7033 8.5625 62.814C8.5625 62.9768 8.53971 63.1395 8.49414 63.3023C8.45508 63.4586 8.43555 63.6213 8.43555 63.7906C8.43555 63.8362 8.4388 63.8785 8.44531 63.9175C8.45182 63.9631 8.46484 64.0119 8.48438 64.064C8.47135 64.1031 8.44531 64.1259 8.40625 64.1324C8.3737 64.1454 8.35091 64.1682 8.33789 64.2007V64.23C8.33789 64.3277 8.32487 64.4123 8.29883 64.4839C8.2793 64.5621 8.25326 64.6337 8.2207 64.6988L8.13281 64.9039C8.10677 64.9755 8.08398 65.0536 8.06445 65.1382C7.89518 65.2294 7.73242 65.3173 7.57617 65.4019C7.42643 65.4866 7.27995 65.6005 7.13672 65.7437C7.11068 65.7502 7.07161 65.7535 7.01953 65.7535C6.97396 65.7535 6.92839 65.7502 6.88281 65.7437C6.83724 65.7437 6.78841 65.7437 6.73633 65.7437C6.66471 65.7437 6.58984 65.7535 6.51172 65.773C6.40755 65.6754 6.2806 65.6037 6.13086 65.5582C5.98112 65.5191 5.84115 65.4638 5.71094 65.3922C5.66536 65.3336 5.61328 65.2815 5.55469 65.2359L5.37891 65.0992C5.32031 65.0536 5.26497 65.008 5.21289 64.9625C5.16081 64.9169 5.11523 64.8583 5.07617 64.7867H4.93945C4.93945 64.7802 4.93945 64.7737 4.93945 64.7672C4.94596 64.7606 4.94922 64.7541 4.94922 64.7476C4.94922 64.7151 4.93294 64.6955 4.90039 64.689C4.86784 64.6825 4.85807 64.6597 4.87109 64.6207C4.79297 64.5621 4.72786 64.4937 4.67578 64.4156C4.6237 64.3375 4.57161 64.2561 4.51953 64.1714C4.46745 64.0933 4.41536 64.0152 4.36328 63.9371C4.3112 63.8655 4.24609 63.8004 4.16797 63.7418V63.7222C4.16797 63.6897 4.1582 63.6701 4.13867 63.6636C4.11914 63.6506 4.11589 63.6181 4.12891 63.566C4.02474 63.4293 3.93685 63.286 3.86523 63.1363C3.79362 62.9866 3.72526 62.8336 3.66016 62.6773C3.60156 62.5145 3.53971 62.355 3.47461 62.1988C3.41602 62.0425 3.3444 61.8928 3.25977 61.7496C3.24674 61.6845 3.24023 61.6194 3.24023 61.5543V61.3589C3.24023 61.1701 3.25651 60.9911 3.28906 60.8218C3.32161 60.6461 3.38346 60.4768 3.47461 60.314C3.52669 60.301 3.58529 60.2977 3.65039 60.3043C3.72201 60.3043 3.78711 60.3043 3.8457 60.3043C3.9043 60.3043 3.95964 60.301 4.01172 60.2945C4.07031 60.2815 4.1224 60.2522 4.16797 60.2066C4.16146 60.2326 4.16797 60.2522 4.1875 60.2652C4.20703 60.2717 4.22656 60.275 4.24609 60.275C4.27865 60.275 4.30794 60.2717 4.33398 60.2652C4.36654 60.2522 4.39909 60.2457 4.43164 60.2457C4.44466 60.2457 4.46094 60.2489 4.48047 60.2554C4.50651 60.2619 4.51953 60.2815 4.51953 60.314C4.55859 60.301 4.5944 60.2847 4.62695 60.2652C4.65951 60.2457 4.69531 60.2261 4.73438 60.2066C4.84505 60.3043 4.97526 60.3791 5.125 60.4312C5.27474 60.4768 5.42773 60.5224 5.58398 60.5679C5.74023 60.607 5.89323 60.6526 6.04297 60.7047C6.19271 60.7502 6.32617 60.8186 6.44336 60.9097C6.47591 60.9748 6.49219 61.0432 6.49219 61.1148C6.49219 61.2255 6.44661 61.3231 6.35547 61.4078C6.26432 61.4859 6.16667 61.5412 6.0625 61.5738C5.91276 61.4696 5.74349 61.3948 5.55469 61.3492C5.3724 61.3036 5.19987 61.2385 5.03711 61.1539C4.9069 61.206 4.76367 61.2352 4.60742 61.2418C4.45768 61.2418 4.3112 61.2483 4.16797 61.2613C4.13542 61.2873 4.1224 61.3329 4.12891 61.398C4.14193 61.4631 4.13216 61.5119 4.09961 61.5445C4.18424 61.7984 4.29492 62.0458 4.43164 62.2867C4.56836 62.5211 4.69206 62.7619 4.80273 63.0093C4.81576 63.0484 4.83854 63.0777 4.87109 63.0972C4.90365 63.1102 4.9362 63.1265 4.96875 63.1461V63.1754C4.96875 63.2144 4.97852 63.2437 4.99805 63.2632C5.01758 63.2763 5.02083 63.3088 5.00781 63.3609C5.08594 63.3739 5.14128 63.4162 5.17383 63.4879C5.21289 63.5595 5.25195 63.6213 5.29102 63.6734C5.31706 63.706 5.3431 63.7352 5.36914 63.7613C5.40169 63.7873 5.43099 63.8166 5.45703 63.8492C5.56771 63.9729 5.68815 64.1031 5.81836 64.2398C5.94857 64.3765 6.08529 64.4807 6.22852 64.5523C6.24805 64.5653 6.26432 64.5718 6.27734 64.5718C6.29688 64.5718 6.31641 64.5751 6.33594 64.5816C6.40755 64.6207 6.48568 64.6565 6.57031 64.689C6.65495 64.7281 6.74284 64.7476 6.83398 64.7476C6.87956 64.7476 6.92513 64.7379 6.9707 64.7183C7.02279 64.6988 7.05534 64.6662 7.06836 64.6207C7.10091 64.5621 7.1237 64.4937 7.13672 64.4156C7.15625 64.344 7.17253 64.2756 7.18555 64.2105C7.23763 64.0217 7.28646 63.8329 7.33203 63.6441C7.38411 63.4553 7.42643 63.2665 7.45898 63.0777C7.44596 62.9931 7.4362 62.9084 7.42969 62.8238C7.42318 62.7392 7.41992 62.6545 7.41992 62.5699C7.41992 62.4201 7.42318 62.2704 7.42969 62.1207C7.44271 61.9709 7.44922 61.8212 7.44922 61.6714C7.44922 61.5347 7.43945 61.4013 7.41992 61.2711C7.4069 61.1343 7.37435 61.0009 7.32227 60.8707C7.33529 60.8446 7.35156 60.8251 7.37109 60.8121C7.39062 60.7991 7.40039 60.7763 7.40039 60.7437C7.40039 60.7047 7.38737 60.6526 7.36133 60.5875C7.3418 60.5158 7.31576 60.4703 7.2832 60.4507C7.32878 60.3856 7.35156 60.3043 7.35156 60.2066C7.35156 60.0959 7.33529 59.9852 7.30273 59.8746C7.27018 59.7639 7.25391 59.6532 7.25391 59.5425C7.25391 59.4709 7.26367 59.3993 7.2832 59.3277C7.2832 59.2821 7.26042 59.2593 7.21484 59.2593C7.16927 59.2593 7.14323 59.2366 7.13672 59.191C7.13672 59.178 7.13672 59.1649 7.13672 59.1519C7.14323 59.1389 7.14648 59.1259 7.14648 59.1129C7.14648 59.0282 7.13346 58.9501 7.10742 58.8785C7.08789 58.8004 7.07487 58.719 7.06836 58.6343C7.00977 58.5692 6.96745 58.4879 6.94141 58.3902C6.91536 58.2925 6.88932 58.1949 6.86328 58.0972C6.83724 57.9931 6.80794 57.8954 6.77539 57.8043C6.74284 57.7131 6.69076 57.6382 6.61914 57.5797C6.61914 57.495 6.60612 57.4071 6.58008 57.316C6.56055 57.2248 6.50521 57.1597 6.41406 57.1207C6.375 56.9709 6.32292 56.831 6.25781 56.7007C6.19271 56.5705 6.10482 56.4533 5.99414 56.3492C5.99414 56.1929 5.96159 56.0725 5.89648 55.9879C5.83789 55.9032 5.76302 55.8056 5.67188 55.6949C5.52214 55.7079 5.3724 55.7372 5.22266 55.7828C5.07292 55.8283 4.92318 55.8511 4.77344 55.8511C4.73438 55.8511 4.69531 55.8511 4.65625 55.8511C4.6237 55.8446 4.58789 55.8381 4.54883 55.8316C4.51628 55.8511 4.49674 55.8837 4.49023 55.9293C4.48372 55.9683 4.48047 56.0041 4.48047 56.0367C4.36328 56.0497 4.24935 56.0725 4.13867 56.105C4.02799 56.1311 3.91406 56.1604 3.79688 56.1929C3.6862 56.219 3.57552 56.2418 3.46484 56.2613C3.35417 56.2808 3.24023 56.2873 3.12305 56.2808C3.07747 56.372 3.01237 56.4338 2.92773 56.4664C2.8431 56.4924 2.75195 56.5119 2.6543 56.525C2.56315 56.538 2.47201 56.5543 2.38086 56.5738C2.28971 56.5933 2.2181 56.6356 2.16602 56.7007C2.13997 56.6747 2.10742 56.6617 2.06836 56.6617C2.01628 56.6617 1.96745 56.6747 1.92188 56.7007C1.86979 56.7268 1.81445 56.7398 1.75586 56.7398C1.71029 56.7398 1.67448 56.7268 1.64844 56.7007C1.60286 56.7333 1.55404 56.7593 1.50195 56.7789C1.44336 56.7919 1.39779 56.8244 1.36523 56.8765C1.25456 56.857 1.1569 56.8147 1.07227 56.7496C0.98763 56.6845 0.919271 56.6063 0.867188 56.5152C0.808594 56.4241 0.766276 56.3264 0.740234 56.2222C0.714193 56.1116 0.701172 56.0041 0.701172 55.9C0.740234 55.8283 0.802083 55.7795 0.886719 55.7535C0.971354 55.7274 1.03971 55.6819 1.0918 55.6168C1.13737 55.6363 1.18294 55.6558 1.22852 55.6754C1.26758 55.6884 1.31315 55.6949 1.36523 55.6949C1.43034 55.6949 1.48568 55.6819 1.53125 55.6558C1.57682 55.6298 1.62565 55.6168 1.67773 55.6168C1.71029 55.6168 1.74609 55.6265 1.78516 55.6461C1.83073 55.607 1.88607 55.5842 1.95117 55.5777C2.01628 55.5647 2.07812 55.5549 2.13672 55.5484C2.20182 55.5354 2.26042 55.5191 2.3125 55.4996C2.36458 55.48 2.40039 55.4377 2.41992 55.3726C2.47852 55.3922 2.54036 55.4019 2.60547 55.4019C2.68359 55.4019 2.76172 55.3922 2.83984 55.3726C2.91797 55.3466 2.98958 55.3205 3.05469 55.2945C3.11979 55.2685 3.17839 55.2457 3.23047 55.2261C3.28255 55.2001 3.31836 55.1871 3.33789 55.1871C3.37044 55.1871 3.40299 55.1968 3.43555 55.2164C3.4681 55.2294 3.50065 55.2359 3.5332 55.2359C3.59831 55.2359 3.66016 55.2164 3.71875 55.1773C3.78385 55.1382 3.84245 55.0992 3.89453 55.0601C3.94661 55.0862 3.99544 55.0992 4.04102 55.0992C4.13216 55.0992 4.22331 55.0731 4.31445 55.0211C4.41211 54.969 4.51628 54.9429 4.62695 54.9429C4.67253 54.9429 4.70833 54.9462 4.73438 54.9527C4.88411 54.8811 5.06315 54.816 5.27148 54.7574C5.48633 54.6988 5.67839 54.6695 5.84766 54.6695C5.9388 54.5914 6.04622 54.536 6.16992 54.5035C6.29362 54.4709 6.42057 54.4449 6.55078 54.4254C6.68099 54.4058 6.80794 54.3798 6.93164 54.3472C7.06185 54.3147 7.17904 54.2593 7.2832 54.1812C7.31576 54.1942 7.35482 54.204 7.40039 54.2105C7.44596 54.2105 7.47852 54.2235 7.49805 54.2496C7.5306 54.2366 7.55339 54.2138 7.56641 54.1812C7.57943 54.1487 7.58919 54.1161 7.5957 54.0836C7.60221 54.077 7.61523 54.0738 7.63477 54.0738C7.66732 54.0738 7.68034 54.0868 7.67383 54.1129C7.66732 54.1389 7.68034 54.1519 7.71289 54.1519C7.73242 54.1519 7.76497 54.1422 7.81055 54.1226C7.86263 54.0966 7.92448 54.0705 7.99609 54.0445C8.06771 54.0185 8.14583 53.9957 8.23047 53.9761C8.3151 53.9501 8.39648 53.9371 8.47461 53.9371H8.51367L8.5625 53.9273C8.59505 53.9143 8.63086 53.9045 8.66992 53.898C8.70898 53.885 8.74479 53.872 8.77734 53.8589C8.81641 53.8459 8.84245 53.8394 8.85547 53.8394C8.9987 53.7938 9.14518 53.7548 9.29492 53.7222C9.45117 53.6897 9.60417 53.6734 9.75391 53.6734C9.89714 53.6734 10.0306 53.6994 10.1543 53.7515C10.278 53.7971 10.3822 53.8817 10.4668 54.0054ZM16.1797 62.2574C16.1536 62.355 16.1113 62.4364 16.0527 62.5015C15.9941 62.5666 15.9258 62.6252 15.8477 62.6773C15.776 62.7294 15.6979 62.7782 15.6133 62.8238C15.5286 62.8629 15.4473 62.9084 15.3691 62.9605H15.2422C14.9688 62.9605 14.7572 62.8954 14.6074 62.7652C14.4642 62.6285 14.3535 62.4625 14.2754 62.2672C14.1973 62.0653 14.1387 61.8505 14.0996 61.6226C14.0671 61.3948 14.0247 61.1864 13.9727 60.9976C13.8945 61.0627 13.8294 61.1408 13.7773 61.232C13.7253 61.3166 13.6699 61.4013 13.6113 61.4859C13.5592 61.5705 13.4974 61.6487 13.4258 61.7203C13.3607 61.7919 13.2728 61.8407 13.1621 61.8668C13.1426 61.9123 13.1198 61.9579 13.0938 62.0035C13.0742 62.0491 13.0612 62.0979 13.0547 62.15C12.9115 62.2281 12.7812 62.3192 12.6641 62.4234C12.5469 62.5276 12.4297 62.635 12.3125 62.7457C12.1953 62.8563 12.0749 62.9638 11.9512 63.0679C11.834 63.1656 11.7005 63.247 11.5508 63.3121C11.5443 63.3056 11.5312 63.3023 11.5117 63.3023C11.4336 63.3023 11.362 63.3218 11.2969 63.3609C11.2318 63.3935 11.1602 63.4097 11.082 63.4097C11.0299 63.4097 10.9811 63.4 10.9355 63.3804C10.8965 63.3609 10.8542 63.3381 10.8086 63.3121C10.7695 63.286 10.7272 63.2665 10.6816 63.2535C10.6361 63.2405 10.5872 63.2372 10.5352 63.2437C10.4701 63.1265 10.3822 63.0191 10.2715 62.9214C10.1673 62.8173 10.1022 62.7001 10.0762 62.5699C10.0632 62.5113 10.0534 62.4527 10.0469 62.3941C10.0469 62.329 10.0404 62.2639 10.0273 62.1988C10.0078 62.1011 9.98177 62.0035 9.94922 61.9058C9.91667 61.8017 9.89062 61.6975 9.87109 61.5933C9.90365 61.4175 9.9362 61.2255 9.96875 61.0172C9.99479 60.8023 10.0273 60.5907 10.0664 60.3824C10.112 60.1675 10.1706 59.9657 10.2422 59.7769C10.3203 59.5816 10.418 59.4156 10.5352 59.2789L10.5254 59.2105C10.5254 59.1063 10.5449 59.0087 10.584 58.9175C10.623 58.8264 10.6654 58.7385 10.7109 58.6539C10.7565 58.5692 10.7956 58.4846 10.8281 58.4C10.8607 58.3153 10.8672 58.2209 10.8477 58.1168C10.9258 58.0777 11.0072 58.0451 11.0918 58.0191C11.1764 57.9931 11.2643 57.98 11.3555 57.98C11.4401 57.98 11.5182 57.9931 11.5898 58.0191C11.5768 58.0712 11.5996 58.1037 11.6582 58.1168V58.1461C11.6582 58.2828 11.6419 58.4162 11.6094 58.5464C11.5768 58.6767 11.5378 58.8069 11.4922 58.9371C11.4466 59.0608 11.401 59.1877 11.3555 59.3179C11.3164 59.4416 11.2871 59.5686 11.2676 59.6988C11.2415 59.7053 11.222 59.7183 11.209 59.7379C11.2025 59.7574 11.196 59.7769 11.1895 59.7964C11.1829 59.816 11.1732 59.8323 11.1602 59.8453C11.1471 59.8583 11.1276 59.8648 11.1016 59.8648C11.0625 60.0927 11.0202 60.3205 10.9746 60.5484C10.9355 60.7698 10.916 60.9944 10.916 61.2222C10.916 61.3589 10.929 61.4989 10.9551 61.6422C10.9811 61.7854 11.0299 61.9221 11.1016 62.0523L11.1406 62.0425C11.2122 62.0425 11.2676 62.0588 11.3066 62.0914C11.3522 62.1239 11.4108 62.1565 11.4824 62.189C11.5345 62.176 11.5833 62.1597 11.6289 62.1402C11.6745 62.1142 11.694 62.0718 11.6875 62.0132C11.7721 62.0067 11.8438 61.9872 11.9023 61.9547C11.9609 61.9156 12.013 61.8733 12.0586 61.8277L12.2051 61.691C12.2572 61.6454 12.319 61.6129 12.3906 61.5933C12.3906 61.5543 12.4004 61.525 12.4199 61.5054L12.4785 61.4468C12.498 61.4273 12.5111 61.4078 12.5176 61.3882C12.5306 61.3622 12.5339 61.3264 12.5273 61.2808C12.6055 61.2743 12.6641 61.2548 12.7031 61.2222C12.7487 61.1897 12.7878 61.1539 12.8203 61.1148C12.8594 61.0692 12.8952 61.0237 12.9277 60.9781C12.9603 60.9325 13.0026 60.8935 13.0547 60.8609C13.1003 60.7632 13.1621 60.633 13.2402 60.4703C13.3249 60.3075 13.4062 60.1382 13.4844 59.9625C13.569 59.7867 13.6406 59.6207 13.6992 59.4644C13.7643 59.3017 13.7969 59.178 13.7969 59.0933C13.7969 59.0608 13.7871 59.0315 13.7676 59.0054C13.7546 58.9794 13.7513 58.9501 13.7578 58.9175V58.8882C13.8099 58.8231 13.8555 58.7515 13.8945 58.6734C13.9401 58.5953 13.9857 58.5204 14.0312 58.4488C14.0833 58.3772 14.1387 58.3121 14.1973 58.2535C14.2559 58.1949 14.3307 58.1493 14.4219 58.1168C14.526 58.1493 14.6302 58.1721 14.7344 58.1851C14.8451 58.1981 14.9492 58.2242 15.0469 58.2632C15.0534 58.426 15.0697 58.6148 15.0957 58.8297C15.1217 59.0445 15.1673 59.2268 15.2324 59.3765C15.2324 59.4612 15.2292 59.5425 15.2227 59.6207C15.2227 59.6988 15.2227 59.7769 15.2227 59.855C15.2227 59.9852 15.2259 60.1187 15.2324 60.2554C15.2454 60.3922 15.2682 60.5191 15.3008 60.6363C15.2552 60.7339 15.2324 60.8381 15.2324 60.9488C15.2324 61.0985 15.2552 61.2418 15.3008 61.3785C15.3464 61.5087 15.3789 61.6487 15.3984 61.7984C15.4831 61.9156 15.5938 61.9742 15.7305 61.9742C15.763 61.9742 15.7891 61.9709 15.8086 61.9644C15.8346 61.9579 15.8607 61.9481 15.8867 61.9351C15.9388 61.9937 15.9844 62.0523 16.0234 62.1109C16.069 62.163 16.1211 62.2118 16.1797 62.2574ZM21.8242 61.3297C21.8242 61.4013 21.7982 61.4566 21.7461 61.4957C21.694 61.5282 21.668 61.5738 21.668 61.6324C21.668 61.6584 21.681 61.691 21.707 61.73C21.6159 61.73 21.554 61.7593 21.5215 61.8179C21.4889 61.8765 21.4564 61.9416 21.4238 62.0132H21.2969C21.2643 62.0132 21.2383 62.0198 21.2188 62.0328C21.1992 62.0458 21.1797 62.0653 21.1602 62.0914C21.1471 62.1109 21.1276 62.1435 21.1016 62.189C20.9779 62.2151 20.8574 62.2574 20.7402 62.316C20.6296 62.3681 20.5189 62.4267 20.4082 62.4918C20.304 62.5504 20.1966 62.6122 20.0859 62.6773C19.9753 62.7359 19.8613 62.7847 19.7441 62.8238C19.6855 62.9214 19.6009 62.9996 19.4902 63.0582H19.4609C19.4284 63.0647 19.3991 63.0614 19.373 63.0484C19.3535 63.0289 19.3275 63.0191 19.2949 63.0191C19.2754 63.0191 19.2624 63.0224 19.2559 63.0289C19.0605 63.1591 18.8424 63.2242 18.6016 63.2242C18.5365 63.2242 18.4746 63.2209 18.416 63.2144C18.3574 63.2014 18.2956 63.1949 18.2305 63.1949C18.2109 63.1949 18.1979 63.2014 18.1914 63.2144L18.1719 63.2535C18.1654 63.2665 18.1556 63.2795 18.1426 63.2925C18.1361 63.3056 18.1133 63.3121 18.0742 63.3121C18.0026 63.3121 17.931 63.3023 17.8594 63.2828C17.7878 63.2632 17.7129 63.26 17.6348 63.273C17.485 63.1884 17.3678 63.107 17.2832 63.0289C17.1986 62.9507 17.1204 62.8336 17.0488 62.6773C17.0163 62.6057 16.9707 62.5373 16.9121 62.4722C16.86 62.4071 16.821 62.3355 16.7949 62.2574C16.7884 62.2313 16.7786 62.1858 16.7656 62.1207C16.7526 62.0491 16.7396 61.9742 16.7266 61.8961C16.7135 61.8179 16.7005 61.7431 16.6875 61.6714C16.681 61.5998 16.6777 61.551 16.6777 61.525C16.6777 61.4468 16.681 61.372 16.6875 61.3004C16.7005 61.2222 16.7135 61.1441 16.7266 61.066C16.7656 60.8186 16.7917 60.5712 16.8047 60.3238C16.8242 60.0699 16.8796 59.8257 16.9707 59.5914C16.9577 59.5198 16.9512 59.4514 16.9512 59.3863V59.1714C16.9512 59.0477 16.9349 58.9436 16.9023 58.8589C16.9544 58.7743 16.9805 58.6799 16.9805 58.5757C16.9805 58.4586 16.9316 58.3902 16.834 58.3707V58.3414C16.834 58.2047 16.7884 58.0972 16.6973 58.0191C16.6973 57.7912 16.7526 57.622 16.8633 57.5113C16.9805 57.3941 17.1335 57.2932 17.3223 57.2086C17.3483 57.1695 17.3581 57.1369 17.3516 57.1109C17.3971 57.1239 17.4395 57.1369 17.4785 57.15C17.5176 57.163 17.5566 57.1695 17.5957 57.1695C17.6608 57.1695 17.7194 57.1597 17.7715 57.1402C17.791 57.2183 17.8398 57.2672 17.918 57.2867C18.0026 57.2997 18.071 57.3192 18.123 57.3453V57.4722C18.123 57.6741 18.1719 57.8661 18.2695 58.0484C18.2435 58.1005 18.2272 58.1558 18.2207 58.2144C18.2142 58.273 18.2109 58.3283 18.2109 58.3804C18.2109 58.4586 18.2142 58.5367 18.2207 58.6148C18.2272 58.6929 18.2305 58.7678 18.2305 58.8394C18.2305 58.9175 18.2207 58.9957 18.2012 59.0738C18.1882 59.1519 18.1523 59.2203 18.0938 59.2789C18.0872 59.3635 18.0807 59.4612 18.0742 59.5718C18.0742 59.676 18.0677 59.7834 18.0547 59.8941C18.0482 60.0048 18.0319 60.1122 18.0059 60.2164C17.9798 60.3205 17.9408 60.4052 17.8887 60.4703C17.8822 60.5679 17.8757 60.6688 17.8691 60.773C17.8691 60.8707 17.8691 60.9651 17.8691 61.0562C17.8691 61.1994 17.8757 61.3687 17.8887 61.564C17.9082 61.7593 17.9538 61.9221 18.0254 62.0523C18.0579 62.1044 18.1198 62.1435 18.2109 62.1695C18.3086 62.1955 18.3867 62.2086 18.4453 62.2086C18.5169 62.2086 18.5885 62.1988 18.6602 62.1793C18.7383 62.1532 18.7936 62.1109 18.8262 62.0523C18.8652 62.0588 18.8913 62.0783 18.9043 62.1109C18.9173 62.1435 18.9401 62.1695 18.9727 62.189C19.3438 62.0328 19.7148 61.883 20.0859 61.7398C20.457 61.5966 20.8216 61.4306 21.1797 61.2418C21.2318 61.2678 21.2871 61.2808 21.3457 61.2808C21.4108 61.2808 21.4759 61.2743 21.541 61.2613C21.6061 61.2483 21.6712 61.2418 21.7363 61.2418H21.8047C21.8177 61.2808 21.8242 61.3101 21.8242 61.3297ZM23.8652 62.5015C23.8327 62.5536 23.7936 62.6024 23.748 62.648C23.7025 62.6871 23.6602 62.7294 23.6211 62.775C23.5755 62.7945 23.5234 62.8043 23.4648 62.8043C23.4128 62.8043 23.3607 62.8043 23.3086 62.8043C23.263 62.7977 23.2174 62.7977 23.1719 62.8043C23.1328 62.8043 23.1003 62.8173 23.0742 62.8433C23.0221 62.8303 22.9831 62.8075 22.957 62.775C22.931 62.7359 22.8854 62.7131 22.8203 62.7066C22.7943 62.7001 22.7682 62.7001 22.7422 62.7066C22.6445 62.5959 22.5534 62.4787 22.4688 62.355C22.3906 62.2313 22.3158 62.1142 22.2441 62.0035C22.2376 61.7626 22.2181 61.5185 22.1855 61.2711C22.179 61.2125 22.1693 61.1539 22.1562 61.0953C22.1432 61.0367 22.1335 60.9813 22.127 60.9293C22.127 60.8642 22.1302 60.8023 22.1367 60.7437C22.1497 60.6786 22.1595 60.62 22.166 60.5679C22.1921 60.3791 22.2214 60.1936 22.2539 60.0113C22.2865 59.829 22.3158 59.6435 22.3418 59.4547C22.3678 59.2854 22.3809 59.1096 22.3809 58.9273C22.3809 58.7385 22.3516 58.5627 22.293 58.4L22.2832 58.3511C22.2962 58.2991 22.3092 58.2567 22.3223 58.2242C22.3418 58.1851 22.3548 58.1428 22.3613 58.0972C22.3743 58.0256 22.3581 57.9735 22.3125 57.941C22.332 57.8889 22.3646 57.8563 22.4102 57.8433C22.4557 57.8238 22.4818 57.7847 22.4883 57.7261C22.4948 57.7001 22.4948 57.6741 22.4883 57.648C22.5404 57.6285 22.5924 57.6122 22.6445 57.5992C22.7031 57.5797 22.7585 57.5764 22.8105 57.5894C22.8952 57.6024 22.9701 57.6317 23.0352 57.6773C23.1003 57.7164 23.1621 57.7619 23.2207 57.814C23.3249 58.1265 23.3672 58.4586 23.3477 58.8101C23.3281 59.1552 23.2956 59.5035 23.25 59.855C23.2044 60.2066 23.1751 60.5517 23.1621 60.8902C23.1491 61.2222 23.2012 61.5315 23.3184 61.8179L23.3379 61.8277C23.3704 61.8342 23.3965 61.8244 23.416 61.7984C23.4355 61.7658 23.4616 61.7528 23.4941 61.7593C23.5202 61.7724 23.5365 61.7789 23.543 61.7789C23.569 61.9091 23.6113 62.0328 23.6699 62.15C23.7285 62.2672 23.7936 62.3843 23.8652 62.5015ZM30.877 62.2574C30.8509 62.355 30.8086 62.4364 30.75 62.5015C30.6914 62.5666 30.623 62.6252 30.5449 62.6773C30.4733 62.7294 30.3952 62.7782 30.3105 62.8238C30.2259 62.8629 30.1445 62.9084 30.0664 62.9605H29.9395C29.666 62.9605 29.4544 62.8954 29.3047 62.7652C29.1615 62.6285 29.0508 62.4625 28.9727 62.2672C28.8945 62.0653 28.8359 61.8505 28.7969 61.6226C28.7643 61.3948 28.722 61.1864 28.6699 60.9976C28.5918 61.0627 28.5267 61.1408 28.4746 61.232C28.4225 61.3166 28.3672 61.4013 28.3086 61.4859C28.2565 61.5705 28.1947 61.6487 28.123 61.7203C28.0579 61.7919 27.9701 61.8407 27.8594 61.8668C27.8398 61.9123 27.8171 61.9579 27.791 62.0035C27.7715 62.0491 27.7585 62.0979 27.752 62.15C27.6087 62.2281 27.4785 62.3192 27.3613 62.4234C27.2441 62.5276 27.127 62.635 27.0098 62.7457C26.8926 62.8563 26.7721 62.9638 26.6484 63.0679C26.5312 63.1656 26.3978 63.247 26.248 63.3121C26.2415 63.3056 26.2285 63.3023 26.209 63.3023C26.1309 63.3023 26.0592 63.3218 25.9941 63.3609C25.929 63.3935 25.8574 63.4097 25.7793 63.4097C25.7272 63.4097 25.6784 63.4 25.6328 63.3804C25.5938 63.3609 25.5514 63.3381 25.5059 63.3121C25.4668 63.286 25.4245 63.2665 25.3789 63.2535C25.3333 63.2405 25.2845 63.2372 25.2324 63.2437C25.1673 63.1265 25.0794 63.0191 24.9688 62.9214C24.8646 62.8173 24.7995 62.7001 24.7734 62.5699C24.7604 62.5113 24.7507 62.4527 24.7441 62.3941C24.7441 62.329 24.7376 62.2639 24.7246 62.1988C24.7051 62.1011 24.679 62.0035 24.6465 61.9058C24.6139 61.8017 24.5879 61.6975 24.5684 61.5933C24.6009 61.4175 24.6335 61.2255 24.666 61.0172C24.6921 60.8023 24.7246 60.5907 24.7637 60.3824C24.8092 60.1675 24.8678 59.9657 24.9395 59.7769C25.0176 59.5816 25.1152 59.4156 25.2324 59.2789L25.2227 59.2105C25.2227 59.1063 25.2422 59.0087 25.2812 58.9175C25.3203 58.8264 25.3626 58.7385 25.4082 58.6539C25.4538 58.5692 25.4928 58.4846 25.5254 58.4C25.5579 58.3153 25.5645 58.2209 25.5449 58.1168C25.623 58.0777 25.7044 58.0451 25.7891 58.0191C25.8737 57.9931 25.9616 57.98 26.0527 57.98C26.1374 57.98 26.2155 57.9931 26.2871 58.0191C26.2741 58.0712 26.2969 58.1037 26.3555 58.1168V58.1461C26.3555 58.2828 26.3392 58.4162 26.3066 58.5464C26.2741 58.6767 26.235 58.8069 26.1895 58.9371C26.1439 59.0608 26.0983 59.1877 26.0527 59.3179C26.0137 59.4416 25.9844 59.5686 25.9648 59.6988C25.9388 59.7053 25.9193 59.7183 25.9062 59.7379C25.8997 59.7574 25.8932 59.7769 25.8867 59.7964C25.8802 59.816 25.8704 59.8323 25.8574 59.8453C25.8444 59.8583 25.8249 59.8648 25.7988 59.8648C25.7598 60.0927 25.7174 60.3205 25.6719 60.5484C25.6328 60.7698 25.6133 60.9944 25.6133 61.2222C25.6133 61.3589 25.6263 61.4989 25.6523 61.6422C25.6784 61.7854 25.7272 61.9221 25.7988 62.0523L25.8379 62.0425C25.9095 62.0425 25.9648 62.0588 26.0039 62.0914C26.0495 62.1239 26.1081 62.1565 26.1797 62.189C26.2318 62.176 26.2806 62.1597 26.3262 62.1402C26.3717 62.1142 26.3913 62.0718 26.3848 62.0132C26.4694 62.0067 26.541 61.9872 26.5996 61.9547C26.6582 61.9156 26.7103 61.8733 26.7559 61.8277L26.9023 61.691C26.9544 61.6454 27.0163 61.6129 27.0879 61.5933C27.0879 61.5543 27.0977 61.525 27.1172 61.5054L27.1758 61.4468C27.1953 61.4273 27.2083 61.4078 27.2148 61.3882C27.2279 61.3622 27.2311 61.3264 27.2246 61.2808C27.3027 61.2743 27.3613 61.2548 27.4004 61.2222C27.446 61.1897 27.485 61.1539 27.5176 61.1148C27.5566 61.0692 27.5924 61.0237 27.625 60.9781C27.6576 60.9325 27.6999 60.8935 27.752 60.8609C27.7975 60.7632 27.8594 60.633 27.9375 60.4703C28.0221 60.3075 28.1035 60.1382 28.1816 59.9625C28.2663 59.7867 28.3379 59.6207 28.3965 59.4644C28.4616 59.3017 28.4941 59.178 28.4941 59.0933C28.4941 59.0608 28.4844 59.0315 28.4648 59.0054C28.4518 58.9794 28.4486 58.9501 28.4551 58.9175V58.8882C28.5072 58.8231 28.5527 58.7515 28.5918 58.6734C28.6374 58.5953 28.6829 58.5204 28.7285 58.4488C28.7806 58.3772 28.8359 58.3121 28.8945 58.2535C28.9531 58.1949 29.028 58.1493 29.1191 58.1168C29.2233 58.1493 29.3275 58.1721 29.4316 58.1851C29.5423 58.1981 29.6465 58.2242 29.7441 58.2632C29.7507 58.426 29.7669 58.6148 29.793 58.8297C29.819 59.0445 29.8646 59.2268 29.9297 59.3765C29.9297 59.4612 29.9264 59.5425 29.9199 59.6207C29.9199 59.6988 29.9199 59.7769 29.9199 59.855C29.9199 59.9852 29.9232 60.1187 29.9297 60.2554C29.9427 60.3922 29.9655 60.5191 29.998 60.6363C29.9525 60.7339 29.9297 60.8381 29.9297 60.9488C29.9297 61.0985 29.9525 61.2418 29.998 61.3785C30.0436 61.5087 30.0762 61.6487 30.0957 61.7984C30.1803 61.9156 30.291 61.9742 30.4277 61.9742C30.4603 61.9742 30.4863 61.9709 30.5059 61.9644C30.5319 61.9579 30.5579 61.9481 30.584 61.9351C30.6361 61.9937 30.6816 62.0523 30.7207 62.1109C30.7663 62.163 30.8184 62.2118 30.877 62.2574ZM36.3652 62.6089C36.3652 62.7196 36.3359 62.8173 36.2773 62.9019C36.2253 62.98 36.2057 63.0777 36.2188 63.1949C36.1276 63.247 36.0527 63.3153 35.9941 63.4C35.9355 63.4846 35.8802 63.5725 35.8281 63.6636C35.3984 63.9436 34.9362 64.1682 34.4414 64.3375C33.9531 64.5132 33.4486 64.6011 32.9277 64.6011C32.8952 64.6011 32.8659 64.5849 32.8398 64.5523C32.8138 64.5263 32.7878 64.497 32.7617 64.4644C32.7357 64.4319 32.7064 64.3993 32.6738 64.3668C32.6478 64.3407 32.6152 64.3277 32.5762 64.3277C32.5306 64.3277 32.4948 64.3375 32.4688 64.357C32.4688 64.344 32.4688 64.331 32.4688 64.3179C32.4753 64.3114 32.4785 64.3017 32.4785 64.2886C32.4785 64.2105 32.4688 64.1291 32.4492 64.0445C32.4297 63.9664 32.4199 63.8882 32.4199 63.8101C32.4199 63.719 32.4362 63.6441 32.4688 63.5855H32.5859C32.651 63.5855 32.7129 63.5823 32.7715 63.5757C32.8366 63.5627 32.9049 63.5562 32.9766 63.5562C33.0482 63.5562 33.1133 63.5757 33.1719 63.6148C33.5299 63.6018 33.8685 63.5367 34.1875 63.4195C34.513 63.2958 34.8418 63.1754 35.1738 63.0582C35.2259 62.9866 35.2552 62.9084 35.2617 62.8238C35.2747 62.7326 35.3008 62.648 35.3398 62.5699C35.1706 62.4267 34.998 62.316 34.8223 62.2379C34.653 62.1532 34.4544 62.1239 34.2266 62.15C34.0898 62.0653 33.9434 62.0165 33.7871 62.0035C33.6374 61.9905 33.4844 61.9709 33.3281 61.9449C33.2891 61.9384 33.2467 61.9319 33.2012 61.9254C33.1621 61.9123 33.1198 61.9058 33.0742 61.9058C33.0417 61.9058 33.0091 61.9156 32.9766 61.9351C32.9505 61.9481 32.944 61.9709 32.957 62.0035C32.9245 61.9514 32.8789 61.9221 32.8203 61.9156C32.7682 61.9026 32.7227 61.8765 32.6836 61.8375C32.4753 61.8244 32.293 61.7886 32.1367 61.73C31.9805 61.6649 31.8079 61.5933 31.6191 61.5152C31.5671 61.4957 31.515 61.4826 31.4629 61.4761C31.4173 61.4631 31.3717 61.4436 31.3262 61.4175C31.209 61.3589 31.1146 61.2808 31.043 61.1832C30.9714 61.0855 30.916 60.9781 30.877 60.8609C30.8314 60.7372 30.7988 60.6102 30.7793 60.48C30.7598 60.3498 30.7402 60.2294 30.7207 60.1187C30.7793 60.0145 30.8346 59.9071 30.8867 59.7964C30.9323 59.6858 30.9714 59.5686 31.0039 59.4449C31.043 59.4254 31.082 59.4091 31.1211 59.3961C31.1602 59.383 31.2025 59.3668 31.248 59.3472C31.2415 59.3342 31.2383 59.3179 31.2383 59.2984C31.2383 59.2658 31.248 59.2333 31.2676 59.2007C31.2936 59.1682 31.3001 59.1356 31.2871 59.1031C31.4303 58.9729 31.5671 58.8394 31.6973 58.7027C31.834 58.5595 31.9512 58.4032 32.0488 58.2339C32.1465 58.2014 32.2246 58.1526 32.2832 58.0875C32.3418 58.0224 32.4004 57.9573 32.459 57.8922C32.5176 57.8205 32.5827 57.7587 32.6543 57.7066C32.7259 57.648 32.8171 57.6122 32.9277 57.5992C32.9538 57.5536 32.9896 57.5178 33.0352 57.4918C33.0807 57.4592 33.1263 57.4299 33.1719 57.4039C33.2174 57.3778 33.2598 57.3485 33.2988 57.316C33.3379 57.2834 33.3672 57.2379 33.3867 57.1793C33.4909 57.1793 33.5853 57.1597 33.6699 57.1207C33.7611 57.0816 33.849 57.0393 33.9336 56.9937C34.0182 56.9481 34.1029 56.9058 34.1875 56.8668C34.2786 56.8277 34.3763 56.8082 34.4805 56.8082C34.5065 56.8082 34.5326 56.8114 34.5586 56.8179C34.5846 56.8179 34.6139 56.8212 34.6465 56.8277C34.6921 56.8733 34.7214 56.9286 34.7344 56.9937C34.7539 57.0523 34.7669 57.1174 34.7734 57.189C34.7799 57.2606 34.7832 57.3323 34.7832 57.4039C34.7897 57.4755 34.8027 57.5406 34.8223 57.5992C34.7637 57.7099 34.6986 57.8205 34.627 57.9312C34.5618 58.0419 34.474 58.1265 34.3633 58.1851H34.3438C34.2982 58.1916 34.2559 58.1819 34.2168 58.1558C34.1777 58.1298 34.1322 58.1168 34.0801 58.1168C34.0475 58.1168 34.0215 58.1265 34.002 58.1461L33.9531 58.1949C33.9401 58.2079 33.9206 58.2209 33.8945 58.2339C33.875 58.247 33.8457 58.247 33.8066 58.2339C33.7155 58.2665 33.6797 58.3218 33.6992 58.4C33.5755 58.413 33.4714 58.452 33.3867 58.5172C33.3021 58.5757 33.224 58.6441 33.1523 58.7222C33.0807 58.7938 33.0091 58.8622 32.9375 58.9273C32.8659 58.9859 32.7812 59.0185 32.6836 59.025C32.5729 59.2203 32.4362 59.3928 32.2734 59.5425C32.1172 59.6923 31.987 59.8616 31.8828 60.0504C31.9023 60.1024 31.9154 60.1578 31.9219 60.2164C31.9284 60.275 31.9382 60.3368 31.9512 60.4019C32.0098 60.48 32.0781 60.5484 32.1562 60.607C32.2409 60.6656 32.3223 60.7242 32.4004 60.7828H32.4297C32.5599 60.7828 32.6803 60.8088 32.791 60.8609C32.9017 60.9065 33.0189 60.9293 33.1426 60.9293C33.2077 60.9293 33.263 60.9162 33.3086 60.8902C33.4779 60.9293 33.6439 60.9618 33.8066 60.9879C33.9759 61.0139 34.1452 61.0334 34.3145 61.0464C34.3991 61.0595 34.4837 61.066 34.5684 61.066C34.6595 61.066 34.7441 61.0757 34.8223 61.0953C34.8939 61.1148 34.9655 61.1408 35.0371 61.1734C35.1087 61.1994 35.1803 61.2287 35.252 61.2613C35.4017 61.3264 35.5417 61.398 35.6719 61.4761C35.8086 61.5543 35.929 61.6487 36.0332 61.7593C36.1374 61.8635 36.2188 61.9872 36.2773 62.1304C36.3359 62.2672 36.3652 62.4267 36.3652 62.6089ZM55.0566 59.2886C55.0436 59.3668 55.0208 59.4547 54.9883 59.5523C54.9622 59.65 54.9232 59.7411 54.8711 59.8257C54.8255 59.9039 54.7669 59.9722 54.6953 60.0308C54.6237 60.0829 54.5391 60.1089 54.4414 60.1089C54.3698 60.1089 54.2982 60.1024 54.2266 60.0894C54.1549 60.0699 54.0801 60.0601 54.002 60.0601C53.9694 60.0601 53.9336 60.0731 53.8945 60.0992C53.862 60.1187 53.8294 60.1285 53.7969 60.1285C53.7643 60.1285 53.735 60.1252 53.709 60.1187C53.6895 60.1057 53.6634 60.0992 53.6309 60.0992C53.6113 60.0992 53.5755 60.1057 53.5234 60.1187C53.4714 60.1317 53.416 60.1448 53.3574 60.1578C53.2988 60.1708 53.2435 60.1871 53.1914 60.2066C53.1393 60.2196 53.1035 60.2294 53.084 60.2359C52.9082 60.2945 52.7324 60.3466 52.5566 60.3922C52.3809 60.4377 52.1986 60.467 52.0098 60.48C51.9707 60.467 51.9121 60.454 51.834 60.441C51.7559 60.4214 51.6973 60.4117 51.6582 60.4117C51.5801 60.4117 51.528 60.4442 51.502 60.5093C51.4824 60.5744 51.4401 60.6233 51.375 60.6558C51.2969 60.7014 51.1992 60.7274 51.082 60.7339C50.9648 60.7405 50.8477 60.7502 50.7305 60.7632C50.6133 60.7763 50.5026 60.8023 50.3984 60.8414C50.3008 60.8739 50.2292 60.939 50.1836 61.0367C50.151 61.0302 50.1152 61.0269 50.0762 61.0269C50.0436 61.0204 50.0078 61.0172 49.9688 61.0172C49.7604 61.0172 49.5651 61.0595 49.3828 61.1441C49.2005 61.2222 49.015 61.2938 48.8262 61.3589C48.8587 61.4175 48.8815 61.4892 48.8945 61.5738C48.9076 61.6584 48.9206 61.7431 48.9336 61.8277C48.9466 61.9058 48.9629 61.9839 48.9824 62.0621C49.0085 62.1337 49.0508 62.189 49.1094 62.2281C49.1094 62.2672 49.0996 62.2997 49.0801 62.3257C49.0671 62.3518 49.0508 62.3746 49.0312 62.3941L48.9629 62.4625C48.9434 62.482 48.9303 62.5113 48.9238 62.5504C48.9043 62.6285 48.8945 62.7099 48.8945 62.7945C48.8945 62.8726 48.849 62.9312 48.7578 62.9703C48.7643 62.9898 48.7676 63.0256 48.7676 63.0777C48.7676 63.1428 48.7578 63.2047 48.7383 63.2632C48.7188 63.3218 48.7122 63.3869 48.7188 63.4586C48.6081 63.5823 48.5137 63.7092 48.4355 63.8394C48.3639 63.9696 48.3086 64.1096 48.2695 64.2593C48.0286 64.5002 47.7812 64.7411 47.5273 64.982C47.2799 65.2294 47.0228 65.467 46.7559 65.6949C46.4954 65.9227 46.2253 66.1376 45.9453 66.3394C45.6654 66.5477 45.3757 66.73 45.0762 66.8863H45.0078C44.8581 66.8863 44.7409 66.9123 44.6562 66.9644C44.5716 67.0165 44.4642 67.0621 44.334 67.1011C44.2363 67.0751 44.1191 67.0621 43.9824 67.0621C43.9043 67.0621 43.8229 67.0653 43.7383 67.0718C43.6602 67.0783 43.5788 67.0816 43.4941 67.0816C43.3835 67.0816 43.2826 67.0686 43.1914 67.0425C43.1068 67.0165 43.0221 66.9872 42.9375 66.9547C42.8594 66.9221 42.778 66.8895 42.6934 66.857C42.6087 66.8244 42.5176 66.8017 42.4199 66.7886C42.0163 66.385 41.6973 65.913 41.4629 65.3726C41.2285 64.8388 41.1113 64.2886 41.1113 63.7222C41.1113 63.4618 41.1471 63.2079 41.2188 62.9605C41.2904 62.7066 41.3262 62.4527 41.3262 62.1988C41.4434 61.9644 41.5443 61.7235 41.6289 61.4761C41.7201 61.2287 41.8112 60.9813 41.9023 60.7339C41.9935 60.4866 42.0911 60.2457 42.1953 60.0113C42.306 59.7704 42.4362 59.5425 42.5859 59.3277C42.6185 59.1584 42.6706 59.0119 42.7422 58.8882C42.8138 58.7645 42.8919 58.6278 42.9766 58.4781C42.9766 58.3349 43.0059 58.2047 43.0645 58.0875C43.1296 57.9638 43.1686 57.827 43.1816 57.6773C43.2858 57.5797 43.3704 57.469 43.4355 57.3453C43.5007 57.2216 43.5625 57.0946 43.6211 56.9644C43.6797 56.8342 43.7448 56.7105 43.8164 56.5933C43.8945 56.4696 43.9987 56.3655 44.1289 56.2808C44.1419 56.2352 44.1484 56.1864 44.1484 56.1343C44.1549 56.0757 44.1712 56.0302 44.1973 55.9976L44.4023 55.773C44.4674 55.6884 44.526 55.6037 44.5781 55.5191C44.6367 55.428 44.6986 55.3466 44.7637 55.275C44.8027 55.2359 44.8451 55.2033 44.8906 55.1773C44.9362 55.1513 44.9753 55.122 45.0078 55.0894C45.0404 55.0569 45.0501 55.0145 45.0371 54.9625C45.0306 54.9104 45.0436 54.8681 45.0762 54.8355C45.0892 54.8225 45.1087 54.8095 45.1348 54.7964C45.1608 54.7834 45.1836 54.7704 45.2031 54.7574C45.2878 54.6988 45.3594 54.6402 45.418 54.5816C45.4766 54.523 45.5579 54.4807 45.6621 54.4547C45.7533 54.383 45.8346 54.3114 45.9062 54.2398C45.9844 54.1682 46.0625 54.1031 46.1406 54.0445C46.2188 53.9859 46.3034 53.9403 46.3945 53.9078C46.4857 53.8687 46.5996 53.8492 46.7363 53.8492C46.7624 53.8492 46.7884 53.8524 46.8145 53.8589C46.8405 53.8589 46.8665 53.8589 46.8926 53.8589C47.1595 54.1063 47.3255 54.4091 47.3906 54.7672C47.319 54.8583 47.2604 54.956 47.2148 55.0601C47.1758 55.1643 47.1302 55.2685 47.0781 55.3726C46.9674 55.4117 46.8633 55.4703 46.7656 55.5484C46.668 55.62 46.5703 55.6949 46.4727 55.773C46.3815 55.8511 46.2839 55.9195 46.1797 55.9781C46.082 56.0367 45.9714 56.066 45.8477 56.066C45.7956 56.1116 45.7109 56.1864 45.5938 56.2906C45.4831 56.3882 45.3659 56.4924 45.2422 56.6031C45.125 56.7138 45.0143 56.8179 44.9102 56.9156C44.8125 57.0132 44.7507 57.0816 44.7246 57.1207C44.7051 57.1532 44.6888 57.1825 44.6758 57.2086C44.6628 57.2346 44.6497 57.2639 44.6367 57.2964L44.3828 57.7261C44.2396 57.9735 44.0931 58.2177 43.9434 58.4586C43.7936 58.6929 43.6634 58.9403 43.5527 59.2007C43.5007 59.3179 43.4583 59.4351 43.4258 59.5523C43.3932 59.6695 43.3607 59.7932 43.3281 59.9234C43.3151 59.9625 43.2988 60.0015 43.2793 60.0406C43.2598 60.0797 43.2435 60.1155 43.2305 60.148C43.1589 60.2847 43.1003 60.4117 43.0547 60.5289C43.0091 60.6461 42.9831 60.7828 42.9766 60.939C42.8138 61.3036 42.6608 61.6714 42.5176 62.0425C42.3809 62.4071 42.2767 62.7847 42.2051 63.1754C42.2441 63.3056 42.2604 63.439 42.2539 63.5757C42.2539 63.706 42.2539 63.8362 42.2539 63.9664C42.2539 64.1291 42.2637 64.2626 42.2832 64.3668C42.3092 64.4774 42.3418 64.5751 42.3809 64.6597C42.4264 64.7509 42.4753 64.842 42.5273 64.9332C42.5794 65.0308 42.6348 65.1448 42.6934 65.275C42.791 65.3531 42.8789 65.4345 42.957 65.5191C43.0352 65.6102 43.11 65.7079 43.1816 65.8121C43.429 65.9358 43.6797 65.9976 43.9336 65.9976C44.1159 65.9976 44.3014 65.9683 44.4902 65.9097C44.679 65.8511 44.8613 65.7763 45.0371 65.6851C45.2194 65.6005 45.3952 65.5061 45.5645 65.4019C45.7337 65.2977 45.8965 65.1968 46.0527 65.0992C46.3262 64.9364 46.5638 64.7606 46.7656 64.5718C46.9674 64.383 47.1497 64.1845 47.3125 63.9761C47.4818 63.7678 47.638 63.5464 47.7812 63.3121C47.9245 63.0712 48.0742 62.8173 48.2305 62.5504C48.237 62.5178 48.25 62.4787 48.2695 62.4332L48.3281 62.2867C48.3477 62.2346 48.3639 62.189 48.377 62.15C48.3965 62.1044 48.4062 62.0751 48.4062 62.0621C48.4062 62.01 48.3932 61.9742 48.3672 61.9547C48.3477 61.9286 48.3379 61.9026 48.3379 61.8765C48.3379 61.8244 48.3509 61.7886 48.377 61.7691C48.403 61.7496 48.4323 61.73 48.4648 61.7105C48.5039 61.691 48.5365 61.6682 48.5625 61.6422C48.5951 61.6161 48.6113 61.5673 48.6113 61.4957C48.5983 61.4892 48.5755 61.4859 48.543 61.4859C48.5104 61.4859 48.4779 61.4892 48.4453 61.4957C48.4128 61.5022 48.3802 61.5054 48.3477 61.5054C48.2695 61.5054 48.2044 61.4794 48.1523 61.4273C48.1198 61.4403 48.0872 61.4631 48.0547 61.4957C48.0221 61.5217 47.9896 61.551 47.957 61.5836C47.931 61.6161 47.9049 61.6454 47.8789 61.6714C47.8529 61.6975 47.8301 61.7105 47.8105 61.7105C47.778 61.7105 47.752 61.704 47.7324 61.691C47.7194 61.678 47.6999 61.6714 47.6738 61.6714C47.5632 61.6714 47.4655 61.6975 47.3809 61.7496C47.2962 61.8017 47.2051 61.844 47.1074 61.8765C47.0879 61.8765 47.0684 61.8765 47.0488 61.8765C47.0293 61.87 47.0098 61.8668 46.9902 61.8668C46.9186 61.8668 46.847 61.8798 46.7754 61.9058C46.7103 61.9254 46.6452 61.9481 46.5801 61.9742C46.5215 62.0002 46.4596 62.023 46.3945 62.0425C46.3294 62.0621 46.2643 62.0686 46.1992 62.0621C46.056 62.1142 45.9225 62.1695 45.7988 62.2281C45.6816 62.2867 45.5449 62.3095 45.3887 62.2964C45.3431 62.316 45.2943 62.3388 45.2422 62.3648C45.1966 62.3843 45.151 62.4104 45.1055 62.4429C45.0664 62.456 45.0371 62.4625 45.0176 62.4625C44.985 62.4625 44.959 62.4462 44.9395 62.4136C44.8874 62.4722 44.819 62.5145 44.7344 62.5406C44.6497 62.5601 44.5618 62.5797 44.4707 62.5992C44.3796 62.6122 44.2917 62.6317 44.207 62.6578C44.1289 62.6773 44.0671 62.7196 44.0215 62.7847C43.9499 62.7261 43.8652 62.6968 43.7676 62.6968C43.6699 62.6968 43.5755 62.7164 43.4844 62.7554C43.3932 62.788 43.2956 62.8043 43.1914 62.8043C43.1523 62.8043 43.1263 62.7977 43.1133 62.7847C43.0872 62.7131 43.0579 62.6415 43.0254 62.5699C42.9928 62.4983 42.9408 62.4462 42.8691 62.4136C42.8561 62.342 42.8431 62.2737 42.8301 62.2086C42.8236 62.1369 42.8203 62.0686 42.8203 62.0035C42.8203 61.8277 42.8724 61.6682 42.9766 61.525C43.0677 61.4924 43.1589 61.4664 43.25 61.4468C43.3477 61.4208 43.4421 61.3915 43.5332 61.3589C43.6048 61.372 43.6764 61.3817 43.748 61.3882C43.8197 61.3948 43.8913 61.398 43.9629 61.398C44.2298 61.398 44.4902 61.3655 44.7441 61.3004C44.998 61.2287 45.2487 61.1539 45.4961 61.0757C45.7305 61.0041 45.9681 60.939 46.209 60.8804C46.4499 60.8218 46.6908 60.7567 46.9316 60.6851C47.1595 60.6265 47.3841 60.5614 47.6055 60.4898C47.8268 60.4117 48.0579 60.3629 48.2988 60.3433C48.4551 60.2326 48.6439 60.1578 48.8652 60.1187C49.0931 60.0797 49.3014 60.0373 49.4902 59.9918C49.7897 59.9201 50.0859 59.8485 50.3789 59.7769C50.6719 59.6988 50.9714 59.6304 51.2773 59.5718C51.6159 59.5002 51.9447 59.4123 52.2637 59.3082C52.5892 59.204 52.9147 59.0933 53.2402 58.9761H53.3379C53.4486 58.9761 53.5625 58.9631 53.6797 58.9371C53.7969 58.911 53.9141 58.898 54.0312 58.898C54.0638 58.898 54.0898 58.9013 54.1094 58.9078C54.1354 58.9078 54.1615 58.9078 54.1875 58.9078C54.207 58.9078 54.2559 58.8948 54.334 58.8687C54.4121 58.8362 54.4674 58.8134 54.5 58.8004C54.5846 58.8915 54.679 58.9729 54.7832 59.0445C54.8874 59.1161 54.9785 59.1975 55.0566 59.2886ZM56.9707 62.2574C56.9447 62.355 56.9023 62.4364 56.8438 62.5015C56.7852 62.5666 56.7168 62.6252 56.6387 62.6773C56.5671 62.7294 56.4889 62.7782 56.4043 62.8238C56.3197 62.8629 56.2383 62.9084 56.1602 62.9605H56.0332C55.7598 62.9605 55.5482 62.8954 55.3984 62.7652C55.2552 62.6285 55.1445 62.4625 55.0664 62.2672C54.9883 62.0653 54.9297 61.8505 54.8906 61.6226C54.8581 61.3948 54.8158 61.1864 54.7637 60.9976C54.6855 61.0627 54.6204 61.1408 54.5684 61.232C54.5163 61.3166 54.4609 61.4013 54.4023 61.4859C54.3503 61.5705 54.2884 61.6487 54.2168 61.7203C54.1517 61.7919 54.0638 61.8407 53.9531 61.8668C53.9336 61.9123 53.9108 61.9579 53.8848 62.0035C53.8652 62.0491 53.8522 62.0979 53.8457 62.15C53.7025 62.2281 53.5723 62.3192 53.4551 62.4234C53.3379 62.5276 53.2207 62.635 53.1035 62.7457C52.9863 62.8563 52.8659 62.9638 52.7422 63.0679C52.625 63.1656 52.4915 63.247 52.3418 63.3121C52.3353 63.3056 52.3223 63.3023 52.3027 63.3023C52.2246 63.3023 52.153 63.3218 52.0879 63.3609C52.0228 63.3935 51.9512 63.4097 51.873 63.4097C51.821 63.4097 51.7721 63.4 51.7266 63.3804C51.6875 63.3609 51.6452 63.3381 51.5996 63.3121C51.5605 63.286 51.5182 63.2665 51.4727 63.2535C51.4271 63.2405 51.3783 63.2372 51.3262 63.2437C51.2611 63.1265 51.1732 63.0191 51.0625 62.9214C50.9583 62.8173 50.8932 62.7001 50.8672 62.5699C50.8542 62.5113 50.8444 62.4527 50.8379 62.3941C50.8379 62.329 50.8314 62.2639 50.8184 62.1988C50.7988 62.1011 50.7728 62.0035 50.7402 61.9058C50.7077 61.8017 50.6816 61.6975 50.6621 61.5933C50.6947 61.4175 50.7272 61.2255 50.7598 61.0172C50.7858 60.8023 50.8184 60.5907 50.8574 60.3824C50.903 60.1675 50.9616 59.9657 51.0332 59.7769C51.1113 59.5816 51.209 59.4156 51.3262 59.2789L51.3164 59.2105C51.3164 59.1063 51.3359 59.0087 51.375 58.9175C51.4141 58.8264 51.4564 58.7385 51.502 58.6539C51.5475 58.5692 51.5866 58.4846 51.6191 58.4C51.6517 58.3153 51.6582 58.2209 51.6387 58.1168C51.7168 58.0777 51.7982 58.0451 51.8828 58.0191C51.9674 57.9931 52.0553 57.98 52.1465 57.98C52.2311 57.98 52.3092 57.9931 52.3809 58.0191C52.3678 58.0712 52.3906 58.1037 52.4492 58.1168V58.1461C52.4492 58.2828 52.4329 58.4162 52.4004 58.5464C52.3678 58.6767 52.3288 58.8069 52.2832 58.9371C52.2376 59.0608 52.1921 59.1877 52.1465 59.3179C52.1074 59.4416 52.0781 59.5686 52.0586 59.6988C52.0326 59.7053 52.013 59.7183 52 59.7379C51.9935 59.7574 51.987 59.7769 51.9805 59.7964C51.974 59.816 51.9642 59.8323 51.9512 59.8453C51.9382 59.8583 51.9186 59.8648 51.8926 59.8648C51.8535 60.0927 51.8112 60.3205 51.7656 60.5484C51.7266 60.7698 51.707 60.9944 51.707 61.2222C51.707 61.3589 51.7201 61.4989 51.7461 61.6422C51.7721 61.7854 51.821 61.9221 51.8926 62.0523L51.9316 62.0425C52.0033 62.0425 52.0586 62.0588 52.0977 62.0914C52.1432 62.1239 52.2018 62.1565 52.2734 62.189C52.3255 62.176 52.3743 62.1597 52.4199 62.1402C52.4655 62.1142 52.485 62.0718 52.4785 62.0132C52.5632 62.0067 52.6348 61.9872 52.6934 61.9547C52.752 61.9156 52.804 61.8733 52.8496 61.8277L52.9961 61.691C53.0482 61.6454 53.11 61.6129 53.1816 61.5933C53.1816 61.5543 53.1914 61.525 53.2109 61.5054L53.2695 61.4468C53.2891 61.4273 53.3021 61.4078 53.3086 61.3882C53.3216 61.3622 53.3249 61.3264 53.3184 61.2808C53.3965 61.2743 53.4551 61.2548 53.4941 61.2222C53.5397 61.1897 53.5788 61.1539 53.6113 61.1148C53.6504 61.0692 53.6862 61.0237 53.7188 60.9781C53.7513 60.9325 53.7936 60.8935 53.8457 60.8609C53.8913 60.7632 53.9531 60.633 54.0312 60.4703C54.1159 60.3075 54.1973 60.1382 54.2754 59.9625C54.36 59.7867 54.4316 59.6207 54.4902 59.4644C54.5553 59.3017 54.5879 59.178 54.5879 59.0933C54.5879 59.0608 54.5781 59.0315 54.5586 59.0054C54.5456 58.9794 54.5423 58.9501 54.5488 58.9175V58.8882C54.6009 58.8231 54.6465 58.7515 54.6855 58.6734C54.7311 58.5953 54.7767 58.5204 54.8223 58.4488C54.8743 58.3772 54.9297 58.3121 54.9883 58.2535C55.0469 58.1949 55.1217 58.1493 55.2129 58.1168C55.3171 58.1493 55.4212 58.1721 55.5254 58.1851C55.6361 58.1981 55.7402 58.2242 55.8379 58.2632C55.8444 58.426 55.8607 58.6148 55.8867 58.8297C55.9128 59.0445 55.9583 59.2268 56.0234 59.3765C56.0234 59.4612 56.0202 59.5425 56.0137 59.6207C56.0137 59.6988 56.0137 59.7769 56.0137 59.855C56.0137 59.9852 56.0169 60.1187 56.0234 60.2554C56.0365 60.3922 56.0592 60.5191 56.0918 60.6363C56.0462 60.7339 56.0234 60.8381 56.0234 60.9488C56.0234 61.0985 56.0462 61.2418 56.0918 61.3785C56.1374 61.5087 56.1699 61.6487 56.1895 61.7984C56.2741 61.9156 56.3848 61.9742 56.5215 61.9742C56.554 61.9742 56.5801 61.9709 56.5996 61.9644C56.6257 61.9579 56.6517 61.9481 56.6777 61.9351C56.7298 61.9937 56.7754 62.0523 56.8145 62.1109C56.86 62.163 56.9121 62.2118 56.9707 62.2574ZM65.7012 57.5601C65.6751 57.6448 65.6328 57.7229 65.5742 57.7945L65.4082 57.9996C65.3561 58.0647 65.3105 58.1363 65.2715 58.2144C65.2389 58.286 65.2292 58.3707 65.2422 58.4683C65.2292 58.4683 65.2129 58.4683 65.1934 58.4683C65.1738 58.4618 65.1576 58.4586 65.1445 58.4586C65.0404 58.4586 64.959 58.4846 64.9004 58.5367C64.8483 58.5823 64.7767 58.6213 64.6855 58.6539C64.6725 58.6148 64.6562 58.579 64.6367 58.5464C64.6172 58.5074 64.5879 58.4813 64.5488 58.4683C64.3926 58.5009 64.2363 58.5269 64.0801 58.5464C63.9238 58.5595 63.7676 58.579 63.6113 58.605C63.5397 58.6181 63.4681 58.6376 63.3965 58.6636C63.3249 58.6832 63.25 58.7027 63.1719 58.7222C63.1328 58.7352 63.0905 58.7418 63.0449 58.7418C62.9993 58.7352 62.9538 58.7352 62.9082 58.7418C62.752 58.7483 62.5827 58.7613 62.4004 58.7808C62.2181 58.7938 62.0553 58.8427 61.9121 58.9273C61.847 58.9143 61.7786 58.9045 61.707 58.898C61.6354 58.8915 61.5638 58.8882 61.4922 58.8882C61.3359 58.8882 61.1634 58.9045 60.9746 58.9371C60.7923 58.9631 60.6296 59.0185 60.4863 59.1031C60.4538 59.0901 60.418 59.0803 60.3789 59.0738C60.3464 59.0673 60.3073 59.064 60.2617 59.064C60.2487 59.064 60.2389 59.0673 60.2324 59.0738C60.2259 59.0738 60.2161 59.0738 60.2031 59.0738C60.1966 59.1324 60.2031 59.191 60.2227 59.2496C60.2487 59.3017 60.291 59.344 60.3496 59.3765C60.3236 59.4481 60.3105 59.5263 60.3105 59.6109C60.3105 59.7216 60.3171 59.8323 60.3301 59.9429C60.3496 60.0536 60.3594 60.1643 60.3594 60.275C60.3594 60.3987 60.3431 60.4963 60.3105 60.5679C60.3757 60.7632 60.4082 60.9716 60.4082 61.1929C60.4082 61.2711 60.4017 61.3492 60.3887 61.4273C60.3822 61.4989 60.3789 61.577 60.3789 61.6617C60.3789 61.7333 60.4049 61.7919 60.457 61.8375C60.5091 61.8765 60.5352 61.9319 60.5352 62.0035C60.5352 62.0295 60.5286 62.0556 60.5156 62.0816C60.6068 62.0621 60.6947 62.036 60.7793 62.0035C60.8639 61.9644 60.9518 61.9449 61.043 61.9449C61.0951 61.9449 61.1439 61.9547 61.1895 61.9742C61.2415 61.9937 61.2871 62.0198 61.3262 62.0523C61.3197 62.0849 61.3132 62.1207 61.3066 62.1597C61.3066 62.1988 61.3066 62.2379 61.3066 62.2769C61.3066 62.3485 61.3066 62.4169 61.3066 62.482C61.3132 62.5406 61.3197 62.6057 61.3262 62.6773C61.2741 62.7685 61.2122 62.8498 61.1406 62.9214C61.0755 62.9931 61.0299 63.0842 61.0039 63.1949C60.9062 63.1949 60.8184 63.2177 60.7402 63.2632C60.6686 63.3023 60.6003 63.3479 60.5352 63.4C60.4701 63.4455 60.4049 63.4911 60.3398 63.5367C60.2747 63.5757 60.2031 63.5953 60.125 63.5953C60.0273 63.5953 59.959 63.5823 59.9199 63.5562C59.8809 63.5237 59.8516 63.4911 59.832 63.4586C59.8125 63.426 59.793 63.3967 59.7734 63.3707C59.7604 63.3446 59.7279 63.3349 59.6758 63.3414C59.6628 63.2567 59.6367 63.1786 59.5977 63.107C59.5586 63.0289 59.5163 62.954 59.4707 62.8824C59.4316 62.8108 59.3893 62.7392 59.3438 62.6675C59.3047 62.5894 59.2754 62.5113 59.2559 62.4332C59.2168 62.2639 59.2005 62.0881 59.207 61.9058C59.2135 61.7235 59.1842 61.5477 59.1191 61.3785C59.1322 61.2873 59.1419 61.1962 59.1484 61.105C59.1549 61.0074 59.1582 60.913 59.1582 60.8218C59.1582 60.6395 59.1517 60.4605 59.1387 60.2847C59.1322 60.1024 59.1257 59.9169 59.1191 59.7281C59.0736 59.6695 59.0443 59.6044 59.0312 59.5328C59.0247 59.4547 59.0182 59.3798 59.0117 59.3082C58.9922 59.2886 58.9694 59.2691 58.9434 59.2496C58.9238 59.23 58.9108 59.204 58.9043 59.1714C58.8522 59.1584 58.8132 59.1519 58.7871 59.1519C58.696 59.1519 58.6178 59.1747 58.5527 59.2203C58.4941 59.2593 58.4388 59.2789 58.3867 59.2789C58.3346 59.2789 58.2858 59.2724 58.2402 59.2593C58.1947 59.2463 58.1491 59.2398 58.1035 59.2398C58.0645 59.2398 58.0417 59.2496 58.0352 59.2691C58.0352 59.2821 58.0221 59.2951 57.9961 59.3082C57.9766 59.3212 57.931 59.3342 57.8594 59.3472C57.7878 59.3602 57.7064 59.3733 57.6152 59.3863C57.5306 59.3928 57.446 59.3993 57.3613 59.4058C57.2832 59.4123 57.2311 59.4156 57.2051 59.4156C57.1009 59.4156 57.0228 59.3961 56.9707 59.357C56.9121 59.3114 56.8438 59.2626 56.7656 59.2105C56.7786 59.1714 56.7852 59.1454 56.7852 59.1324C56.7852 59.0673 56.7656 59.0152 56.7266 58.9761C56.6875 58.9306 56.668 58.8915 56.668 58.8589C56.668 58.7873 56.6973 58.732 56.7559 58.6929C56.8079 58.6539 56.8372 58.592 56.8438 58.5074C56.9935 58.4423 57.1465 58.3935 57.3027 58.3609C57.459 58.3283 57.6185 58.3023 57.7812 58.2828C57.944 58.2632 58.1035 58.2405 58.2598 58.2144C58.4225 58.1884 58.582 58.1461 58.7383 58.0875C58.7839 58.094 58.8262 58.1005 58.8652 58.107C58.9108 58.107 58.9564 58.107 59.002 58.107C59.1973 58.107 59.3893 58.0875 59.5781 58.0484C59.7734 58.0028 59.972 57.98 60.1738 57.98C60.2259 57.98 60.278 57.9833 60.3301 57.9898C60.3822 57.9963 60.4342 58.0061 60.4863 58.0191C60.7467 57.98 61.0039 57.9377 61.2578 57.8922C61.5182 57.8466 61.7852 57.8075 62.0586 57.775C62.1888 57.7619 62.3158 57.7522 62.4395 57.7457C62.5697 57.7326 62.6999 57.7164 62.8301 57.6968C62.8757 57.6903 62.9082 57.6806 62.9277 57.6675C62.9538 57.648 62.9668 57.6122 62.9668 57.5601C63.0254 57.5862 63.0905 57.5992 63.1621 57.5992C63.2728 57.5992 63.3802 57.5797 63.4844 57.5406C63.5885 57.5015 63.696 57.482 63.8066 57.482C63.8327 57.482 63.8555 57.4852 63.875 57.4918C63.8945 57.4918 63.9141 57.4918 63.9336 57.4918C63.9792 57.4918 64.002 57.4722 64.002 57.4332C64.0085 57.3876 64.041 57.3583 64.0996 57.3453C64.1452 57.3323 64.2103 57.3225 64.2949 57.316C64.3796 57.3095 64.4674 57.303 64.5586 57.2964C64.6562 57.2834 64.7441 57.2704 64.8223 57.2574C64.9069 57.2379 64.9688 57.2118 65.0078 57.1793L65.0762 57.0718C65.1934 57.0783 65.278 57.1304 65.3301 57.2281C65.3887 57.3192 65.4212 57.4201 65.4277 57.5308C65.4538 57.5569 65.4896 57.5699 65.5352 57.5699C65.5872 57.5634 65.6328 57.5601 65.6719 57.5601H65.7012ZM66.4434 62.5015C66.4108 62.5536 66.3717 62.6024 66.3262 62.648C66.2806 62.6871 66.2383 62.7294 66.1992 62.775C66.1536 62.7945 66.1016 62.8043 66.043 62.8043C65.9909 62.8043 65.9388 62.8043 65.8867 62.8043C65.8411 62.7977 65.7956 62.7977 65.75 62.8043C65.7109 62.8043 65.6784 62.8173 65.6523 62.8433C65.6003 62.8303 65.5612 62.8075 65.5352 62.775C65.5091 62.7359 65.4635 62.7131 65.3984 62.7066C65.3724 62.7001 65.3464 62.7001 65.3203 62.7066C65.2227 62.5959 65.1315 62.4787 65.0469 62.355C64.9688 62.2313 64.8939 62.1142 64.8223 62.0035C64.8158 61.7626 64.7962 61.5185 64.7637 61.2711C64.7572 61.2125 64.7474 61.1539 64.7344 61.0953C64.7214 61.0367 64.7116 60.9813 64.7051 60.9293C64.7051 60.8642 64.7083 60.8023 64.7148 60.7437C64.7279 60.6786 64.7376 60.62 64.7441 60.5679C64.7702 60.3791 64.7995 60.1936 64.832 60.0113C64.8646 59.829 64.8939 59.6435 64.9199 59.4547C64.946 59.2854 64.959 59.1096 64.959 58.9273C64.959 58.7385 64.9297 58.5627 64.8711 58.4L64.8613 58.3511C64.8743 58.2991 64.8874 58.2567 64.9004 58.2242C64.9199 58.1851 64.9329 58.1428 64.9395 58.0972C64.9525 58.0256 64.9362 57.9735 64.8906 57.941C64.9102 57.8889 64.9427 57.8563 64.9883 57.8433C65.0339 57.8238 65.0599 57.7847 65.0664 57.7261C65.0729 57.7001 65.0729 57.6741 65.0664 57.648C65.1185 57.6285 65.1706 57.6122 65.2227 57.5992C65.2812 57.5797 65.3366 57.5764 65.3887 57.5894C65.4733 57.6024 65.5482 57.6317 65.6133 57.6773C65.6784 57.7164 65.7402 57.7619 65.7988 57.814C65.903 58.1265 65.9453 58.4586 65.9258 58.8101C65.9062 59.1552 65.8737 59.5035 65.8281 59.855C65.7826 60.2066 65.7533 60.5517 65.7402 60.8902C65.7272 61.2222 65.7793 61.5315 65.8965 61.8179L65.916 61.8277C65.9486 61.8342 65.9746 61.8244 65.9941 61.7984C66.0137 61.7658 66.0397 61.7528 66.0723 61.7593C66.0983 61.7724 66.1146 61.7789 66.1211 61.7789C66.1471 61.9091 66.1895 62.0328 66.248 62.15C66.3066 62.2672 66.3717 62.3843 66.4434 62.5015ZM73.5527 57.6285V57.6675C73.5072 57.6806 73.4844 57.7131 73.4844 57.7652C73.4128 57.7977 73.3379 57.8238 73.2598 57.8433C73.1816 57.8563 73.1068 57.8791 73.0352 57.9117C72.9635 57.9052 72.8887 57.9019 72.8105 57.9019C72.7389 57.8954 72.6673 57.8922 72.5957 57.8922C72.4004 57.8922 72.2051 57.8987 72.0098 57.9117C71.8145 57.9247 71.6191 57.9247 71.4238 57.9117C71.3327 57.9638 71.2318 58.0061 71.1211 58.0386C71.0169 58.0647 70.916 58.0777 70.8184 58.0777C70.7402 58.0777 70.6719 58.0679 70.6133 58.0484C70.457 58.1265 70.2845 58.1916 70.0957 58.2437C69.9134 58.2958 69.7279 58.3479 69.5391 58.4C69.3503 58.4455 69.168 58.5009 68.9922 58.566C68.8229 58.6246 68.6732 58.7092 68.543 58.8199C68.5299 58.911 68.5202 59.0022 68.5137 59.0933C68.5072 59.178 68.5039 59.2626 68.5039 59.3472C68.5039 59.4384 68.5072 59.523 68.5137 59.6011C68.5267 59.6793 68.5495 59.7574 68.582 59.8355C68.6146 59.8485 68.6504 59.8583 68.6895 59.8648C68.735 59.8713 68.7741 59.8746 68.8066 59.8746C68.8392 59.8746 68.8717 59.8713 68.9043 59.8648C68.9368 59.8518 68.9596 59.829 68.9727 59.7964C69.0703 59.7834 69.168 59.7802 69.2656 59.7867C69.3633 59.7867 69.4609 59.7867 69.5586 59.7867C69.6562 59.7867 69.7507 59.7834 69.8418 59.7769C69.9395 59.7704 70.0339 59.7541 70.125 59.7281C70.2292 59.702 70.3301 59.6858 70.4277 59.6793C70.5319 59.6727 70.6328 59.6662 70.7305 59.6597C70.8281 59.6532 70.929 59.6435 71.0332 59.6304C71.1374 59.6109 71.2448 59.5751 71.3555 59.523C71.4401 59.5556 71.5247 59.5718 71.6094 59.5718C71.7005 59.5718 71.7884 59.5783 71.873 59.5914C71.9186 59.6239 71.9544 59.6597 71.9805 59.6988C72.013 59.7379 72.0293 59.7834 72.0293 59.8355C72.0293 59.9267 71.9967 60.0178 71.9316 60.1089C71.8665 60.2001 71.8145 60.2847 71.7754 60.3629H71.668C71.5117 60.3629 71.3587 60.3856 71.209 60.4312C71.0658 60.4703 70.9193 60.5191 70.7695 60.5777C70.6263 60.6298 70.4798 60.6786 70.3301 60.7242C70.1868 60.7632 70.0371 60.7828 69.8809 60.7828C69.8548 60.7828 69.8385 60.7991 69.832 60.8316C69.832 60.8576 69.8255 60.8772 69.8125 60.8902C69.7799 60.8837 69.7311 60.8804 69.666 60.8804C69.5163 60.8804 69.373 60.8967 69.2363 60.9293C69.0996 60.9618 68.9596 60.9781 68.8164 60.9781C68.7773 60.9781 68.7383 60.9781 68.6992 60.9781C68.6602 60.9716 68.6211 60.9651 68.582 60.9586C68.5495 61.0106 68.5072 61.0464 68.4551 61.066C68.403 61.079 68.3542 61.105 68.3086 61.1441C68.2891 61.2027 68.276 61.2743 68.2695 61.3589C68.2695 61.4436 68.2663 61.5315 68.2598 61.6226C68.2598 61.7073 68.2533 61.7886 68.2402 61.8668C68.2272 61.9449 68.2012 62.0067 68.1621 62.0523C68.1686 62.0849 68.1947 62.0979 68.2402 62.0914C68.2858 62.0783 68.3086 62.0979 68.3086 62.15C68.3086 62.2086 68.3021 62.2704 68.2891 62.3355C68.276 62.4006 68.2695 62.4657 68.2695 62.5308C68.2695 62.6545 68.2826 62.7912 68.3086 62.941C68.3411 63.0842 68.3867 63.2177 68.4453 63.3414C68.5104 63.4651 68.5951 63.5692 68.6992 63.6539C68.8034 63.732 68.9336 63.7711 69.0898 63.7711C69.194 63.7711 69.2917 63.7515 69.3828 63.7125C69.474 63.6734 69.5488 63.6083 69.6074 63.5172L69.6562 63.5074C69.6823 63.5074 69.7051 63.5106 69.7246 63.5172C69.7507 63.5237 69.7767 63.5269 69.8027 63.5269C69.8418 63.5269 69.8906 63.5041 69.9492 63.4586C70.0143 63.4065 70.0827 63.3479 70.1543 63.2828C70.2324 63.2177 70.3105 63.1558 70.3887 63.0972C70.4668 63.0321 70.5417 62.9866 70.6133 62.9605C70.6589 62.8694 70.7012 62.7782 70.7402 62.6871C70.7858 62.5959 70.8509 62.5243 70.9355 62.4722V62.189C71.0007 62.1174 71.069 62.0523 71.1406 61.9937C71.2188 61.9351 71.2773 61.8602 71.3164 61.7691C71.349 61.7821 71.3783 61.7919 71.4043 61.7984C71.4368 61.8049 71.4694 61.8082 71.502 61.8082C71.5345 61.8082 71.5671 61.8049 71.5996 61.7984C71.6387 61.7919 71.6745 61.7821 71.707 61.7691C71.7591 61.8407 71.7982 61.9221 71.8242 62.0132C71.8568 62.0979 71.8958 62.1793 71.9414 62.2574C71.8828 62.3746 71.8145 62.5145 71.7363 62.6773C71.6582 62.8401 71.5736 63.0028 71.4824 63.1656C71.3913 63.3283 71.2936 63.4846 71.1895 63.6343C71.0918 63.7776 70.9941 63.8882 70.8965 63.9664C70.877 63.9859 70.8346 64.0087 70.7695 64.0347C70.6979 64.0868 70.6328 64.1356 70.5742 64.1812C70.5156 64.2333 70.4603 64.2919 70.4082 64.357C70.2194 64.4156 70.0371 64.4937 69.8613 64.5914C69.6921 64.689 69.5228 64.7834 69.3535 64.8746C69.2754 64.855 69.1908 64.8453 69.0996 64.8453C69.0215 64.8453 68.9434 64.8485 68.8652 64.855C68.7871 64.8681 68.7025 64.8746 68.6113 64.8746C68.5853 64.842 68.5462 64.8192 68.4941 64.8062C68.4486 64.7997 68.4323 64.7672 68.4453 64.7086C68.224 64.6955 68.0449 64.6337 67.9082 64.523C67.7715 64.4188 67.6543 64.2886 67.5566 64.1324C67.4655 63.9761 67.3906 63.8069 67.332 63.6246C67.2734 63.4423 67.2116 63.2665 67.1465 63.0972V63.0679C67.1465 63.0354 67.1595 63.0158 67.1855 63.0093C67.2116 63.0028 67.2246 62.9833 67.2246 62.9507C67.2246 62.9377 67.2214 62.928 67.2148 62.9214C67.1953 62.8498 67.179 62.788 67.166 62.7359C67.153 62.6838 67.1465 62.622 67.1465 62.5504C67.1465 62.4462 67.153 62.3453 67.166 62.2476C67.179 62.1435 67.1855 62.0393 67.1855 61.9351C67.1855 61.831 67.1725 61.7398 67.1465 61.6617C67.1725 61.6291 67.1953 61.5868 67.2148 61.5347C67.2279 61.4761 67.2376 61.4175 67.2441 61.3589C67.2507 61.3004 67.2539 61.2418 67.2539 61.1832C67.2604 61.1246 67.2702 61.0725 67.2832 61.0269C67.2572 60.9553 67.2344 60.8935 67.2148 60.8414C67.1953 60.7828 67.1855 60.7144 67.1855 60.6363V60.5679C67.2507 60.4573 67.306 60.3433 67.3516 60.2261C67.3971 60.1089 67.446 59.9885 67.498 59.8648V59.8355C67.498 59.6467 67.4915 59.4579 67.4785 59.2691C67.4655 59.0803 67.459 58.8915 67.459 58.7027V58.5172C67.459 58.452 67.4622 58.3902 67.4688 58.3316C67.5208 58.3056 67.5599 58.2698 67.5859 58.2242C67.612 58.1786 67.651 58.1428 67.7031 58.1168H68.0254L68.084 58.0191C68.1035 57.9866 68.1165 57.9507 68.123 57.9117C68.1947 57.8922 68.263 57.8661 68.3281 57.8336C68.3997 57.7945 68.4648 57.7554 68.5234 57.7164C68.6146 57.6643 68.696 57.6187 68.7676 57.5797C68.8457 57.5341 68.9206 57.4983 68.9922 57.4722C69.0703 57.4397 69.1517 57.4136 69.2363 57.3941C69.321 57.3746 69.4186 57.3583 69.5293 57.3453C69.5814 57.3453 69.6139 57.3355 69.627 57.316C69.6465 57.2964 69.6725 57.2737 69.7051 57.2476C69.7832 57.2606 69.8613 57.2737 69.9395 57.2867C70.0176 57.2932 70.0957 57.2964 70.1738 57.2964C70.3301 57.2964 70.4766 57.2672 70.6133 57.2086C70.8086 57.2086 71.0007 57.2053 71.1895 57.1988C71.3848 57.1923 71.5801 57.189 71.7754 57.189C71.9447 57.189 72.1139 57.1955 72.2832 57.2086C72.4525 57.2216 72.6185 57.2444 72.7812 57.2769C72.8398 57.2574 72.9049 57.2476 72.9766 57.2476C73.0547 57.2476 73.1328 57.2574 73.2109 57.2769C73.2956 57.2899 73.377 57.2899 73.4551 57.2769C73.4616 57.3485 73.4779 57.4104 73.5039 57.4625C73.5365 57.508 73.5527 57.5634 73.5527 57.6285ZM85.5742 62.1402C85.5612 62.2379 85.5254 62.3127 85.4668 62.3648C85.4147 62.4169 85.3529 62.4657 85.2812 62.5113C85.2487 62.5048 85.2161 62.5015 85.1836 62.5015C85.1576 62.495 85.1283 62.4918 85.0957 62.4918C84.8939 62.4852 84.7018 62.5113 84.5195 62.5699C84.3438 62.6285 84.1615 62.6708 83.9727 62.6968C83.9076 62.7099 83.8457 62.7164 83.7871 62.7164C83.735 62.7099 83.6797 62.7131 83.6211 62.7261C83.4128 62.7587 83.1914 62.7847 82.957 62.8043C82.7227 62.8238 82.4883 62.8498 82.2539 62.8824C82.0195 62.9084 81.7884 62.9442 81.5605 62.9898C81.3392 63.0289 81.1309 63.0875 80.9355 63.1656C80.916 63.1526 80.8965 63.1395 80.877 63.1265C80.8574 63.107 80.8346 63.0972 80.8086 63.0972C80.7435 63.0972 80.6816 63.107 80.623 63.1265C80.5645 63.1461 80.5059 63.1526 80.4473 63.1461C80.3822 63.1851 80.3105 63.2144 80.2324 63.2339C80.1608 63.247 80.0859 63.26 80.0078 63.273C79.9362 63.2795 79.8646 63.2925 79.793 63.3121C79.7214 63.3316 79.653 63.3674 79.5879 63.4195C79.5358 63.3935 79.4707 63.3804 79.3926 63.3804C79.321 63.3739 79.2721 63.3479 79.2461 63.3023C79.0964 63.3739 78.9368 63.4195 78.7676 63.439C78.6048 63.4586 78.4388 63.4651 78.2695 63.4586C78.1589 63.452 78.0319 63.4358 77.8887 63.4097C77.7454 63.3837 77.6022 63.3479 77.459 63.3023C77.3158 63.2502 77.1823 63.1916 77.0586 63.1265C76.9349 63.0549 76.8405 62.9703 76.7754 62.8726C76.7298 62.8075 76.6973 62.7359 76.6777 62.6578C76.6582 62.5797 76.6126 62.5211 76.541 62.482C76.5605 62.3323 76.5833 62.1858 76.6094 62.0425C76.6354 61.8993 76.6615 61.7528 76.6875 61.6031C76.8177 61.4924 76.9414 61.3752 77.0586 61.2515C77.1758 61.1278 77.2865 60.9976 77.3906 60.8609C77.5143 60.8023 77.6283 60.7307 77.7324 60.6461C77.8431 60.5614 77.9505 60.4768 78.0547 60.3922C78.1654 60.301 78.2728 60.2131 78.377 60.1285C78.4876 60.0438 78.6048 59.969 78.7285 59.9039C78.748 59.8583 78.7741 59.8225 78.8066 59.7964C78.8457 59.7639 78.8848 59.7346 78.9238 59.7086C78.9629 59.676 78.9987 59.6435 79.0312 59.6109C79.0638 59.5718 79.0866 59.5263 79.0996 59.4742C79.3275 59.3375 79.526 59.1649 79.6953 58.9566C79.8646 58.7483 79.9753 58.5139 80.0273 58.2535C79.9167 58.1623 79.7897 58.1037 79.6465 58.0777C79.5098 58.0451 79.3665 58.0224 79.2168 58.0093C79.0866 58.0028 78.9499 58.0028 78.8066 58.0093C78.6699 58.0158 78.5299 58.0126 78.3867 57.9996C78.2435 58.0451 78.0938 58.0744 77.9375 58.0875C77.7878 58.1005 77.638 58.1135 77.4883 58.1265C77.3385 58.133 77.1888 58.1526 77.0391 58.1851C76.8958 58.2112 76.7559 58.2632 76.6191 58.3414C76.5931 58.3414 76.5671 58.3381 76.541 58.3316C76.5215 58.3251 76.4987 58.3218 76.4727 58.3218C76.2643 58.3153 76.069 58.3576 75.8867 58.4488C75.7044 58.5334 75.5254 58.6181 75.3496 58.7027C75.3366 58.7287 75.3301 58.7483 75.3301 58.7613C75.3301 58.8004 75.3366 58.8394 75.3496 58.8785C75.3691 58.911 75.3789 58.9468 75.3789 58.9859C75.3724 58.9924 75.3691 58.9989 75.3691 59.0054C75.3691 59.0119 75.3659 59.0185 75.3594 59.025C75.3529 59.0575 75.3431 59.0868 75.3301 59.1129C75.3236 59.1389 75.3138 59.1682 75.3008 59.2007C75.2292 59.4091 75.1901 59.6142 75.1836 59.816C75.1771 59.9852 75.1771 60.1513 75.1836 60.314C75.1901 60.4768 75.1901 60.6428 75.1836 60.8121C75.1706 61.0204 75.138 61.2157 75.0859 61.398C75.1185 61.5543 75.1478 61.7203 75.1738 61.8961C75.1999 62.0653 75.2324 62.2346 75.2715 62.4039C75.3105 62.5731 75.3561 62.7392 75.4082 62.9019C75.4668 63.0582 75.5417 63.2079 75.6328 63.3511C75.6263 63.3642 75.6296 63.3739 75.6426 63.3804C75.6556 63.3869 75.6686 63.3902 75.6816 63.3902H75.7598C75.7923 63.3902 75.8053 63.4032 75.7988 63.4293C75.8118 63.4488 75.8216 63.4683 75.8281 63.4879C75.8346 63.5009 75.8477 63.5139 75.8672 63.5269C75.8802 63.5464 75.8802 63.5725 75.8672 63.605C75.8607 63.7352 75.8281 63.8557 75.7695 63.9664C75.7109 64.077 75.6751 64.1975 75.6621 64.3277C75.584 64.3472 75.5124 64.357 75.4473 64.357C75.3366 64.3505 75.2389 64.3179 75.1543 64.2593C75.0697 64.2073 74.9915 64.1422 74.9199 64.064C74.8483 63.9859 74.7799 63.9078 74.7148 63.8297C74.6497 63.745 74.5781 63.6734 74.5 63.6148C74.4544 63.4325 74.4089 63.2307 74.3633 63.0093C74.3242 62.788 74.2559 62.5992 74.1582 62.4429C74.1842 62.3843 74.1973 62.3127 74.1973 62.2281C74.2038 62.0979 74.1908 61.9709 74.1582 61.8472C74.1322 61.717 74.1257 61.5868 74.1387 61.4566C74.1387 61.385 74.1452 61.3134 74.1582 61.2418C74.1777 61.1701 74.1908 61.0985 74.1973 61.0269C74.2038 60.9162 74.1908 60.8088 74.1582 60.7047C74.1322 60.6005 74.1224 60.4931 74.1289 60.3824C74.1354 60.3303 74.1452 60.2815 74.1582 60.2359C74.1777 60.1838 74.2038 60.1382 74.2363 60.0992C74.2038 60.0211 74.194 59.9462 74.207 59.8746C74.2135 59.7639 74.2266 59.6597 74.2461 59.5621C74.2656 59.4644 74.2786 59.3668 74.2852 59.2691C74.2852 59.217 74.2819 59.1682 74.2754 59.1226C74.2689 59.0705 74.2591 59.0217 74.2461 58.9761L74.1582 58.9468C74.1191 58.9468 74.0801 58.9566 74.041 58.9761C74.0085 58.9957 73.9792 59.0185 73.9531 59.0445C73.9271 59.0705 73.9043 59.0933 73.8848 59.1129C73.8652 59.1259 73.8457 59.1324 73.8262 59.1324C73.8132 59.1324 73.7969 59.1324 73.7773 59.1324C73.7643 59.1259 73.7513 59.1226 73.7383 59.1226C73.7253 59.1226 73.6992 59.1356 73.6602 59.1617C73.6276 59.1877 73.5853 59.217 73.5332 59.2496C73.4876 59.2756 73.4421 59.3049 73.3965 59.3375C73.3509 59.3635 73.3151 59.3798 73.2891 59.3863C73.2174 59.3733 73.1589 59.3505 73.1133 59.3179C73.0742 59.2789 73.0352 59.2431 72.9961 59.2105C72.9635 59.1714 72.9277 59.1389 72.8887 59.1129C72.8496 59.0803 72.8008 59.0673 72.7422 59.0738C72.7227 59.0347 72.7129 58.9924 72.7129 58.9468C72.7064 58.9013 72.7064 58.8557 72.7129 58.8101V58.6539C72.7585 58.5692 72.8203 58.5009 72.8984 58.4488C72.9701 58.3902 73.0482 58.3414 73.1328 58.3023L73.3867 58.1851C73.4714 58.1461 73.5495 58.0972 73.6211 58.0386H73.709C73.8262 58.0451 73.9271 58.0224 74.0117 57.9703C74.1029 57.9182 74.1875 57.8596 74.2656 57.7945C74.3438 57.7229 74.4219 57.6513 74.5 57.5797C74.5846 57.508 74.6758 57.4527 74.7734 57.4136C74.8451 57.4462 74.9199 57.4755 74.998 57.5015C75.0762 57.5211 75.1576 57.5341 75.2422 57.5406C75.3268 57.5406 75.4147 57.5276 75.5059 57.5015C75.597 57.4755 75.6686 57.4267 75.7207 57.355C75.7533 57.3681 75.7793 57.3778 75.7988 57.3843C75.8249 57.3843 75.8542 57.3843 75.8867 57.3843C75.9844 57.3908 76.082 57.3778 76.1797 57.3453C76.2773 57.3062 76.3717 57.2606 76.4629 57.2086C76.5931 57.2151 76.7201 57.2086 76.8438 57.189C76.974 57.163 77.1009 57.1369 77.2246 57.1109C77.3548 57.0849 77.4818 57.0621 77.6055 57.0425C77.7357 57.0165 77.8659 57.0067 77.9961 57.0132C78.2109 57.0198 78.4225 57.0002 78.6309 56.9547C78.8392 56.9091 79.0508 56.8928 79.2656 56.9058C79.4154 56.9123 79.5618 56.9254 79.7051 56.9449C79.8548 56.9579 80.0046 56.9612 80.1543 56.9547C80.2389 56.9937 80.3138 57.0295 80.3789 57.0621C80.4505 57.0881 80.5384 57.0946 80.6426 57.0816C80.8509 57.2574 81.0397 57.4625 81.209 57.6968V57.8629C81.2025 58.0126 81.1764 58.1591 81.1309 58.3023C81.0853 58.4455 81.0299 58.5888 80.9648 58.732C80.9062 58.8687 80.8411 59.0054 80.7695 59.1422C80.6979 59.2724 80.6296 59.4026 80.5645 59.5328C80.1413 59.9169 79.7181 60.2977 79.2949 60.6754C78.8717 61.053 78.4355 61.4175 77.9863 61.7691C77.9733 61.8342 77.9538 61.8928 77.9277 61.9449C77.9082 61.997 77.8952 62.0523 77.8887 62.1109C77.8887 62.1435 77.8919 62.1695 77.8984 62.189C77.944 62.202 77.9831 62.2281 78.0156 62.2672C78.0547 62.2997 78.0677 62.3453 78.0547 62.4039H78.1426C78.1751 62.4039 78.1914 62.4169 78.1914 62.4429L78.3477 62.4527C78.5951 62.4657 78.8424 62.4592 79.0898 62.4332C79.3372 62.4071 79.5846 62.3778 79.832 62.3453C80.0859 62.3127 80.3366 62.2834 80.584 62.2574C80.8314 62.2248 81.0788 62.2053 81.3262 62.1988C81.3848 62.1793 81.4466 62.163 81.5117 62.15C81.5768 62.1369 81.6354 62.1109 81.6875 62.0718H81.7168C81.7624 62.0718 81.7949 62.0849 81.8145 62.1109C81.8405 62.1369 81.8763 62.1532 81.9219 62.1597C81.9544 62.1597 81.987 62.1532 82.0195 62.1402C82.0586 62.1272 82.0977 62.1174 82.1367 62.1109C82.2279 62.0849 82.3223 62.0686 82.4199 62.0621C82.5241 62.0556 82.625 62.0458 82.7227 62.0328C83.1003 62.0002 83.4746 61.9807 83.8457 61.9742C84.2168 61.9612 84.5879 61.9123 84.959 61.8277C84.9915 61.8733 85.0371 61.9058 85.0957 61.9254C85.1543 61.9384 85.2161 61.9547 85.2812 61.9742C85.3464 61.9872 85.4049 62.0035 85.457 62.023C85.5156 62.0425 85.5547 62.0816 85.5742 62.1402ZM94.793 62.1402C94.7799 62.2379 94.7441 62.3127 94.6855 62.3648C94.6335 62.4169 94.5716 62.4657 94.5 62.5113C94.4674 62.5048 94.4349 62.5015 94.4023 62.5015C94.3763 62.495 94.347 62.4918 94.3145 62.4918C94.1126 62.4852 93.9206 62.5113 93.7383 62.5699C93.5625 62.6285 93.3802 62.6708 93.1914 62.6968C93.1263 62.7099 93.0645 62.7164 93.0059 62.7164C92.9538 62.7099 92.8984 62.7131 92.8398 62.7261C92.6315 62.7587 92.4102 62.7847 92.1758 62.8043C91.9414 62.8238 91.707 62.8498 91.4727 62.8824C91.2383 62.9084 91.0072 62.9442 90.7793 62.9898C90.5579 63.0289 90.3496 63.0875 90.1543 63.1656C90.1348 63.1526 90.1152 63.1395 90.0957 63.1265C90.0762 63.107 90.0534 63.0972 90.0273 63.0972C89.9622 63.0972 89.9004 63.107 89.8418 63.1265C89.7832 63.1461 89.7246 63.1526 89.666 63.1461C89.6009 63.1851 89.5293 63.2144 89.4512 63.2339C89.3796 63.247 89.3047 63.26 89.2266 63.273C89.1549 63.2795 89.0833 63.2925 89.0117 63.3121C88.9401 63.3316 88.8717 63.3674 88.8066 63.4195C88.7546 63.3935 88.6895 63.3804 88.6113 63.3804C88.5397 63.3739 88.4909 63.3479 88.4648 63.3023C88.3151 63.3739 88.1556 63.4195 87.9863 63.439C87.8236 63.4586 87.6576 63.4651 87.4883 63.4586C87.3776 63.452 87.2507 63.4358 87.1074 63.4097C86.9642 63.3837 86.821 63.3479 86.6777 63.3023C86.5345 63.2502 86.401 63.1916 86.2773 63.1265C86.1536 63.0549 86.0592 62.9703 85.9941 62.8726C85.9486 62.8075 85.916 62.7359 85.8965 62.6578C85.877 62.5797 85.8314 62.5211 85.7598 62.482C85.7793 62.3323 85.8021 62.1858 85.8281 62.0425C85.8542 61.8993 85.8802 61.7528 85.9062 61.6031C86.0365 61.4924 86.1602 61.3752 86.2773 61.2515C86.3945 61.1278 86.5052 60.9976 86.6094 60.8609C86.7331 60.8023 86.847 60.7307 86.9512 60.6461C87.0618 60.5614 87.1693 60.4768 87.2734 60.3922C87.3841 60.301 87.4915 60.2131 87.5957 60.1285C87.7064 60.0438 87.8236 59.969 87.9473 59.9039C87.9668 59.8583 87.9928 59.8225 88.0254 59.7964C88.0645 59.7639 88.1035 59.7346 88.1426 59.7086C88.1816 59.676 88.2174 59.6435 88.25 59.6109C88.2826 59.5718 88.3053 59.5263 88.3184 59.4742C88.5462 59.3375 88.7448 59.1649 88.9141 58.9566C89.0833 58.7483 89.194 58.5139 89.2461 58.2535C89.1354 58.1623 89.0085 58.1037 88.8652 58.0777C88.7285 58.0451 88.5853 58.0224 88.4355 58.0093C88.3053 58.0028 88.1686 58.0028 88.0254 58.0093C87.8887 58.0158 87.7487 58.0126 87.6055 57.9996C87.4622 58.0451 87.3125 58.0744 87.1562 58.0875C87.0065 58.1005 86.8568 58.1135 86.707 58.1265C86.5573 58.133 86.4076 58.1526 86.2578 58.1851C86.1146 58.2112 85.9746 58.2632 85.8379 58.3414C85.8118 58.3414 85.7858 58.3381 85.7598 58.3316C85.7402 58.3251 85.7174 58.3218 85.6914 58.3218C85.4831 58.3153 85.2878 58.3576 85.1055 58.4488C84.9232 58.5334 84.7441 58.6181 84.5684 58.7027C84.5553 58.7287 84.5488 58.7483 84.5488 58.7613C84.5488 58.8004 84.5553 58.8394 84.5684 58.8785C84.5879 58.911 84.5977 58.9468 84.5977 58.9859C84.5911 58.9924 84.5879 58.9989 84.5879 59.0054C84.5879 59.0119 84.5846 59.0185 84.5781 59.025C84.5716 59.0575 84.5618 59.0868 84.5488 59.1129C84.5423 59.1389 84.5326 59.1682 84.5195 59.2007C84.4479 59.4091 84.4089 59.6142 84.4023 59.816C84.3958 59.9852 84.3958 60.1513 84.4023 60.314C84.4089 60.4768 84.4089 60.6428 84.4023 60.8121C84.3893 61.0204 84.3568 61.2157 84.3047 61.398C84.3372 61.5543 84.3665 61.7203 84.3926 61.8961C84.4186 62.0653 84.4512 62.2346 84.4902 62.4039C84.5293 62.5731 84.5749 62.7392 84.627 62.9019C84.6855 63.0582 84.7604 63.2079 84.8516 63.3511C84.8451 63.3642 84.8483 63.3739 84.8613 63.3804C84.8743 63.3869 84.8874 63.3902 84.9004 63.3902H84.9785C85.0111 63.3902 85.0241 63.4032 85.0176 63.4293C85.0306 63.4488 85.0404 63.4683 85.0469 63.4879C85.0534 63.5009 85.0664 63.5139 85.0859 63.5269C85.099 63.5464 85.099 63.5725 85.0859 63.605C85.0794 63.7352 85.0469 63.8557 84.9883 63.9664C84.9297 64.077 84.8939 64.1975 84.8809 64.3277C84.8027 64.3472 84.7311 64.357 84.666 64.357C84.5553 64.3505 84.4577 64.3179 84.373 64.2593C84.2884 64.2073 84.2103 64.1422 84.1387 64.064C84.0671 63.9859 83.9987 63.9078 83.9336 63.8297C83.8685 63.745 83.7969 63.6734 83.7188 63.6148C83.6732 63.4325 83.6276 63.2307 83.582 63.0093C83.543 62.788 83.4746 62.5992 83.377 62.4429C83.403 62.3843 83.416 62.3127 83.416 62.2281C83.4225 62.0979 83.4095 61.9709 83.377 61.8472C83.3509 61.717 83.3444 61.5868 83.3574 61.4566C83.3574 61.385 83.3639 61.3134 83.377 61.2418C83.3965 61.1701 83.4095 61.0985 83.416 61.0269C83.4225 60.9162 83.4095 60.8088 83.377 60.7047C83.3509 60.6005 83.3411 60.4931 83.3477 60.3824C83.3542 60.3303 83.3639 60.2815 83.377 60.2359C83.3965 60.1838 83.4225 60.1382 83.4551 60.0992C83.4225 60.0211 83.4128 59.9462 83.4258 59.8746C83.4323 59.7639 83.4453 59.6597 83.4648 59.5621C83.4844 59.4644 83.4974 59.3668 83.5039 59.2691C83.5039 59.217 83.5007 59.1682 83.4941 59.1226C83.4876 59.0705 83.4779 59.0217 83.4648 58.9761L83.377 58.9468C83.3379 58.9468 83.2988 58.9566 83.2598 58.9761C83.2272 58.9957 83.1979 59.0185 83.1719 59.0445C83.1458 59.0705 83.123 59.0933 83.1035 59.1129C83.084 59.1259 83.0645 59.1324 83.0449 59.1324C83.0319 59.1324 83.0156 59.1324 82.9961 59.1324C82.9831 59.1259 82.9701 59.1226 82.957 59.1226C82.944 59.1226 82.918 59.1356 82.8789 59.1617C82.8464 59.1877 82.804 59.217 82.752 59.2496C82.7064 59.2756 82.6608 59.3049 82.6152 59.3375C82.5697 59.3635 82.5339 59.3798 82.5078 59.3863C82.4362 59.3733 82.3776 59.3505 82.332 59.3179C82.293 59.2789 82.2539 59.2431 82.2148 59.2105C82.1823 59.1714 82.1465 59.1389 82.1074 59.1129C82.0684 59.0803 82.0195 59.0673 81.9609 59.0738C81.9414 59.0347 81.9316 58.9924 81.9316 58.9468C81.9251 58.9013 81.9251 58.8557 81.9316 58.8101V58.6539C81.9772 58.5692 82.0391 58.5009 82.1172 58.4488C82.1888 58.3902 82.2669 58.3414 82.3516 58.3023L82.6055 58.1851C82.6901 58.1461 82.7682 58.0972 82.8398 58.0386H82.9277C83.0449 58.0451 83.1458 58.0224 83.2305 57.9703C83.3216 57.9182 83.4062 57.8596 83.4844 57.7945C83.5625 57.7229 83.6406 57.6513 83.7188 57.5797C83.8034 57.508 83.8945 57.4527 83.9922 57.4136C84.0638 57.4462 84.1387 57.4755 84.2168 57.5015C84.2949 57.5211 84.3763 57.5341 84.4609 57.5406C84.5456 57.5406 84.6335 57.5276 84.7246 57.5015C84.8158 57.4755 84.8874 57.4267 84.9395 57.355C84.972 57.3681 84.998 57.3778 85.0176 57.3843C85.0436 57.3843 85.0729 57.3843 85.1055 57.3843C85.2031 57.3908 85.3008 57.3778 85.3984 57.3453C85.4961 57.3062 85.5905 57.2606 85.6816 57.2086C85.8118 57.2151 85.9388 57.2086 86.0625 57.189C86.1927 57.163 86.3197 57.1369 86.4434 57.1109C86.5736 57.0849 86.7005 57.0621 86.8242 57.0425C86.9544 57.0165 87.0846 57.0067 87.2148 57.0132C87.4297 57.0198 87.6413 57.0002 87.8496 56.9547C88.0579 56.9091 88.2695 56.8928 88.4844 56.9058C88.6341 56.9123 88.7806 56.9254 88.9238 56.9449C89.0736 56.9579 89.2233 56.9612 89.373 56.9547C89.4577 56.9937 89.5326 57.0295 89.5977 57.0621C89.6693 57.0881 89.7572 57.0946 89.8613 57.0816C90.0697 57.2574 90.2585 57.4625 90.4277 57.6968V57.8629C90.4212 58.0126 90.3952 58.1591 90.3496 58.3023C90.304 58.4455 90.2487 58.5888 90.1836 58.732C90.125 58.8687 90.0599 59.0054 89.9883 59.1422C89.9167 59.2724 89.8483 59.4026 89.7832 59.5328C89.36 59.9169 88.9368 60.2977 88.5137 60.6754C88.0905 61.053 87.6543 61.4175 87.2051 61.7691C87.1921 61.8342 87.1725 61.8928 87.1465 61.9449C87.127 61.997 87.1139 62.0523 87.1074 62.1109C87.1074 62.1435 87.1107 62.1695 87.1172 62.189C87.1628 62.202 87.2018 62.2281 87.2344 62.2672C87.2734 62.2997 87.2865 62.3453 87.2734 62.4039H87.3613C87.3939 62.4039 87.4102 62.4169 87.4102 62.4429L87.5664 62.4527C87.8138 62.4657 88.0612 62.4592 88.3086 62.4332C88.556 62.4071 88.8034 62.3778 89.0508 62.3453C89.3047 62.3127 89.5553 62.2834 89.8027 62.2574C90.0501 62.2248 90.2975 62.2053 90.5449 62.1988C90.6035 62.1793 90.6654 62.163 90.7305 62.15C90.7956 62.1369 90.8542 62.1109 90.9062 62.0718H90.9355C90.9811 62.0718 91.0137 62.0849 91.0332 62.1109C91.0592 62.1369 91.0951 62.1532 91.1406 62.1597C91.1732 62.1597 91.2057 62.1532 91.2383 62.1402C91.2773 62.1272 91.3164 62.1174 91.3555 62.1109C91.4466 62.0849 91.541 62.0686 91.6387 62.0621C91.7428 62.0556 91.8438 62.0458 91.9414 62.0328C92.319 62.0002 92.6934 61.9807 93.0645 61.9742C93.4355 61.9612 93.8066 61.9123 94.1777 61.8277C94.2103 61.8733 94.2559 61.9058 94.3145 61.9254C94.373 61.9384 94.4349 61.9547 94.5 61.9742C94.5651 61.9872 94.6237 62.0035 94.6758 62.023C94.7344 62.0425 94.7734 62.0816 94.793 62.1402ZM98.2012 57.6285V57.6675C98.1556 57.6806 98.1328 57.7131 98.1328 57.7652C98.0612 57.7977 97.9863 57.8238 97.9082 57.8433C97.8301 57.8563 97.7552 57.8791 97.6836 57.9117C97.612 57.9052 97.5371 57.9019 97.459 57.9019C97.3874 57.8954 97.3158 57.8922 97.2441 57.8922C97.0488 57.8922 96.8535 57.8987 96.6582 57.9117C96.4629 57.9247 96.2676 57.9247 96.0723 57.9117C95.9811 57.9638 95.8802 58.0061 95.7695 58.0386C95.6654 58.0647 95.5645 58.0777 95.4668 58.0777C95.3887 58.0777 95.3203 58.0679 95.2617 58.0484C95.1055 58.1265 94.9329 58.1916 94.7441 58.2437C94.5618 58.2958 94.3763 58.3479 94.1875 58.4C93.9987 58.4455 93.8164 58.5009 93.6406 58.566C93.4714 58.6246 93.3216 58.7092 93.1914 58.8199C93.1784 58.911 93.1686 59.0022 93.1621 59.0933C93.1556 59.178 93.1523 59.2626 93.1523 59.3472C93.1523 59.4384 93.1556 59.523 93.1621 59.6011C93.1751 59.6793 93.1979 59.7574 93.2305 59.8355C93.263 59.8485 93.2988 59.8583 93.3379 59.8648C93.3835 59.8713 93.4225 59.8746 93.4551 59.8746C93.4876 59.8746 93.5202 59.8713 93.5527 59.8648C93.5853 59.8518 93.6081 59.829 93.6211 59.7964C93.7188 59.7834 93.8164 59.7802 93.9141 59.7867C94.0117 59.7867 94.1094 59.7867 94.207 59.7867C94.3047 59.7867 94.3991 59.7834 94.4902 59.7769C94.5879 59.7704 94.6823 59.7541 94.7734 59.7281C94.8776 59.702 94.9785 59.6858 95.0762 59.6793C95.1803 59.6727 95.2812 59.6662 95.3789 59.6597C95.4766 59.6532 95.5775 59.6435 95.6816 59.6304C95.7858 59.6109 95.8932 59.5751 96.0039 59.523C96.0885 59.5556 96.1732 59.5718 96.2578 59.5718C96.349 59.5718 96.4368 59.5783 96.5215 59.5914C96.5671 59.6239 96.6029 59.6597 96.6289 59.6988C96.6615 59.7379 96.6777 59.7834 96.6777 59.8355C96.6777 59.9267 96.6452 60.0178 96.5801 60.1089C96.515 60.2001 96.4629 60.2847 96.4238 60.3629H96.3164C96.1602 60.3629 96.0072 60.3856 95.8574 60.4312C95.7142 60.4703 95.5677 60.5191 95.418 60.5777C95.2747 60.6298 95.1283 60.6786 94.9785 60.7242C94.8353 60.7632 94.6855 60.7828 94.5293 60.7828C94.5033 60.7828 94.487 60.7991 94.4805 60.8316C94.4805 60.8576 94.474 60.8772 94.4609 60.8902C94.4284 60.8837 94.3796 60.8804 94.3145 60.8804C94.1647 60.8804 94.0215 60.8967 93.8848 60.9293C93.748 60.9618 93.6081 60.9781 93.4648 60.9781C93.4258 60.9781 93.3867 60.9781 93.3477 60.9781C93.3086 60.9716 93.2695 60.9651 93.2305 60.9586C93.1979 61.0106 93.1556 61.0464 93.1035 61.066C93.0514 61.079 93.0026 61.105 92.957 61.1441C92.9375 61.2027 92.9245 61.2743 92.918 61.3589C92.918 61.4436 92.9147 61.5315 92.9082 61.6226C92.9082 61.7073 92.9017 61.7886 92.8887 61.8668C92.8757 61.9449 92.8496 62.0067 92.8105 62.0523C92.8171 62.0849 92.8431 62.0979 92.8887 62.0914C92.9342 62.0783 92.957 62.0979 92.957 62.15C92.957 62.2086 92.9505 62.2704 92.9375 62.3355C92.9245 62.4006 92.918 62.4657 92.918 62.5308C92.918 62.6545 92.931 62.7912 92.957 62.941C92.9896 63.0842 93.0352 63.2177 93.0938 63.3414C93.1589 63.4651 93.2435 63.5692 93.3477 63.6539C93.4518 63.732 93.582 63.7711 93.7383 63.7711C93.8424 63.7711 93.9401 63.7515 94.0312 63.7125C94.1224 63.6734 94.1973 63.6083 94.2559 63.5172L94.3047 63.5074C94.3307 63.5074 94.3535 63.5106 94.373 63.5172C94.3991 63.5237 94.4251 63.5269 94.4512 63.5269C94.4902 63.5269 94.5391 63.5041 94.5977 63.4586C94.6628 63.4065 94.7311 63.3479 94.8027 63.2828C94.8809 63.2177 94.959 63.1558 95.0371 63.0972C95.1152 63.0321 95.1901 62.9866 95.2617 62.9605C95.3073 62.8694 95.3496 62.7782 95.3887 62.6871C95.4342 62.5959 95.4993 62.5243 95.584 62.4722V62.189C95.6491 62.1174 95.7174 62.0523 95.7891 61.9937C95.8672 61.9351 95.9258 61.8602 95.9648 61.7691C95.9974 61.7821 96.0267 61.7919 96.0527 61.7984C96.0853 61.8049 96.1178 61.8082 96.1504 61.8082C96.1829 61.8082 96.2155 61.8049 96.248 61.7984C96.2871 61.7919 96.3229 61.7821 96.3555 61.7691C96.4076 61.8407 96.4466 61.9221 96.4727 62.0132C96.5052 62.0979 96.5443 62.1793 96.5898 62.2574C96.5312 62.3746 96.4629 62.5145 96.3848 62.6773C96.3066 62.8401 96.222 63.0028 96.1309 63.1656C96.0397 63.3283 95.9421 63.4846 95.8379 63.6343C95.7402 63.7776 95.6426 63.8882 95.5449 63.9664C95.5254 63.9859 95.4831 64.0087 95.418 64.0347C95.3464 64.0868 95.2812 64.1356 95.2227 64.1812C95.1641 64.2333 95.1087 64.2919 95.0566 64.357C94.8678 64.4156 94.6855 64.4937 94.5098 64.5914C94.3405 64.689 94.1712 64.7834 94.002 64.8746C93.9238 64.855 93.8392 64.8453 93.748 64.8453C93.6699 64.8453 93.5918 64.8485 93.5137 64.855C93.4355 64.8681 93.3509 64.8746 93.2598 64.8746C93.2337 64.842 93.1947 64.8192 93.1426 64.8062C93.097 64.7997 93.0807 64.7672 93.0938 64.7086C92.8724 64.6955 92.6934 64.6337 92.5566 64.523C92.4199 64.4188 92.3027 64.2886 92.2051 64.1324C92.1139 63.9761 92.0391 63.8069 91.9805 63.6246C91.9219 63.4423 91.86 63.2665 91.7949 63.0972V63.0679C91.7949 63.0354 91.8079 63.0158 91.834 63.0093C91.86 63.0028 91.873 62.9833 91.873 62.9507C91.873 62.9377 91.8698 62.928 91.8633 62.9214C91.8438 62.8498 91.8275 62.788 91.8145 62.7359C91.8014 62.6838 91.7949 62.622 91.7949 62.5504C91.7949 62.4462 91.8014 62.3453 91.8145 62.2476C91.8275 62.1435 91.834 62.0393 91.834 61.9351C91.834 61.831 91.821 61.7398 91.7949 61.6617C91.821 61.6291 91.8438 61.5868 91.8633 61.5347C91.8763 61.4761 91.8861 61.4175 91.8926 61.3589C91.8991 61.3004 91.9023 61.2418 91.9023 61.1832C91.9089 61.1246 91.9186 61.0725 91.9316 61.0269C91.9056 60.9553 91.8828 60.8935 91.8633 60.8414C91.8438 60.7828 91.834 60.7144 91.834 60.6363V60.5679C91.8991 60.4573 91.9544 60.3433 92 60.2261C92.0456 60.1089 92.0944 59.9885 92.1465 59.8648V59.8355C92.1465 59.6467 92.14 59.4579 92.127 59.2691C92.1139 59.0803 92.1074 58.8915 92.1074 58.7027V58.5172C92.1074 58.452 92.1107 58.3902 92.1172 58.3316C92.1693 58.3056 92.2083 58.2698 92.2344 58.2242C92.2604 58.1786 92.2995 58.1428 92.3516 58.1168H92.6738L92.7324 58.0191C92.752 57.9866 92.765 57.9507 92.7715 57.9117C92.8431 57.8922 92.9115 57.8661 92.9766 57.8336C93.0482 57.7945 93.1133 57.7554 93.1719 57.7164C93.263 57.6643 93.3444 57.6187 93.416 57.5797C93.4941 57.5341 93.569 57.4983 93.6406 57.4722C93.7188 57.4397 93.8001 57.4136 93.8848 57.3941C93.9694 57.3746 94.0671 57.3583 94.1777 57.3453C94.2298 57.3453 94.2624 57.3355 94.2754 57.316C94.2949 57.2964 94.321 57.2737 94.3535 57.2476C94.4316 57.2606 94.5098 57.2737 94.5879 57.2867C94.666 57.2932 94.7441 57.2964 94.8223 57.2964C94.9785 57.2964 95.125 57.2672 95.2617 57.2086C95.457 57.2086 95.6491 57.2053 95.8379 57.1988C96.0332 57.1923 96.2285 57.189 96.4238 57.189C96.5931 57.189 96.7624 57.1955 96.9316 57.2086C97.1009 57.2216 97.2669 57.2444 97.4297 57.2769C97.4883 57.2574 97.5534 57.2476 97.625 57.2476C97.7031 57.2476 97.7812 57.2574 97.8594 57.2769C97.944 57.2899 98.0254 57.2899 98.1035 57.2769C98.11 57.3485 98.1263 57.4104 98.1523 57.4625C98.1849 57.508 98.2012 57.5634 98.2012 57.6285ZM108.865 61.4078C108.839 61.5185 108.787 61.6063 108.709 61.6714C108.637 61.73 108.553 61.7756 108.455 61.8082C108.357 61.8407 108.253 61.8635 108.143 61.8765C108.038 61.8895 107.944 61.8993 107.859 61.9058C107.768 61.9514 107.687 62.0035 107.615 62.0621C107.544 62.1142 107.469 62.1662 107.391 62.2183C106.818 62.2899 106.251 62.3778 105.691 62.482C105.132 62.5862 104.565 62.6741 103.992 62.7457C103.914 62.7977 103.813 62.8336 103.689 62.8531C103.566 62.8661 103.436 62.8791 103.299 62.8922C103.169 62.8987 103.038 62.9149 102.908 62.941C102.778 62.9605 102.664 62.9996 102.566 63.0582C102.143 63.0777 101.733 63.1493 101.336 63.273C101.264 63.2535 101.189 63.2372 101.111 63.2242C101.04 63.2112 100.968 63.2047 100.896 63.2047C100.844 63.2047 100.786 63.2112 100.721 63.2242C100.656 63.2307 100.604 63.26 100.564 63.3121C100.408 63.1884 100.223 63.1428 100.008 63.1754C99.832 63.0972 99.6758 62.9996 99.5391 62.8824C99.4089 62.7652 99.3079 62.6155 99.2363 62.4332C99.2428 62.329 99.2428 62.2509 99.2363 62.1988C99.2298 62.1402 99.1842 62.0783 99.0996 62.0132C99.0996 61.9677 99.1126 61.9319 99.1387 61.9058C99.1712 61.8798 99.1908 61.844 99.1973 61.7984C99.1712 61.7528 99.1582 61.6975 99.1582 61.6324C99.1582 61.5217 99.1777 61.411 99.2168 61.3004C99.2559 61.1832 99.2624 61.0692 99.2363 60.9586C99.3275 60.8088 99.4316 60.6688 99.5488 60.5386C99.666 60.4019 99.7832 60.2717 99.9004 60.148C100.024 60.0178 100.145 59.8876 100.262 59.7574C100.385 59.6272 100.499 59.4905 100.604 59.3472C100.727 59.3082 100.838 59.2496 100.936 59.1714C101.04 59.0868 101.137 58.9989 101.229 58.9078C101.326 58.8166 101.424 58.7287 101.521 58.6441C101.619 58.5595 101.733 58.4911 101.863 58.439C101.876 58.4 101.896 58.3674 101.922 58.3414C101.954 58.3088 101.987 58.2795 102.02 58.2535C102.052 58.2274 102.081 58.1981 102.107 58.1656C102.14 58.133 102.163 58.094 102.176 58.0484H102.088C101.795 58.0484 101.502 58.0679 101.209 58.107C100.916 58.1395 100.623 58.1819 100.33 58.2339C100.044 58.2795 99.7572 58.3283 99.4707 58.3804C99.1842 58.4325 98.8945 58.4748 98.6016 58.5074C98.4909 58.566 98.3704 58.6181 98.2402 58.6636C98.11 58.7092 97.9798 58.7548 97.8496 58.8004C97.7259 58.8459 97.6055 58.898 97.4883 58.9566C97.3646 59.0152 97.2572 59.0868 97.166 59.1714C97.1465 59.178 97.1172 59.1812 97.0781 59.1812C97.0065 59.1812 96.9447 59.1682 96.8926 59.1422C96.8405 59.1096 96.7819 59.0868 96.7168 59.0738C96.7038 58.9696 96.6842 58.872 96.6582 58.7808C96.6257 58.6832 96.6094 58.5823 96.6094 58.4781C96.6094 58.3935 96.6224 58.3218 96.6484 58.2632C96.7396 58.2632 96.8047 58.2339 96.8438 58.1754C96.8763 58.1168 96.9284 58.0647 97 58.0191C97.0195 58.0386 97.0391 58.0484 97.0586 58.0484C97.0911 58.0484 97.1204 58.0354 97.1465 58.0093C97.1725 57.9833 97.2051 57.9573 97.2441 57.9312C97.2832 57.9052 97.3288 57.8824 97.3809 57.8629C97.4329 57.8433 97.5013 57.8368 97.5859 57.8433C97.7812 57.7392 97.9635 57.6741 98.1328 57.648C98.3086 57.622 98.5007 57.5927 98.709 57.5601C98.7611 57.5471 98.7969 57.5308 98.8164 57.5113C98.8359 57.4918 98.8587 57.4625 98.8848 57.4234L99.0898 57.4332C99.3698 57.4462 99.6497 57.4299 99.9297 57.3843C100.21 57.3323 100.486 57.2769 100.76 57.2183C101.04 57.1597 101.32 57.1109 101.6 57.0718C101.886 57.0263 102.173 57.0165 102.459 57.0425C102.531 57.01 102.602 56.9905 102.674 56.9839C102.752 56.9774 102.83 56.9742 102.908 56.9742C103.012 56.9742 103.126 56.9839 103.25 57.0035C103.374 57.023 103.488 57.0588 103.592 57.1109C103.702 57.163 103.79 57.2346 103.855 57.3257C103.927 57.4104 103.963 57.5178 103.963 57.648C103.963 57.7196 103.947 57.7847 103.914 57.8433C103.882 57.9019 103.842 57.9573 103.797 58.0093C103.751 58.0614 103.702 58.1135 103.65 58.1656C103.598 58.2112 103.549 58.2567 103.504 58.3023C103.432 58.3804 103.364 58.4651 103.299 58.5562C103.24 58.6408 103.169 58.719 103.084 58.7906C103.038 58.7841 103.003 58.7938 102.977 58.8199C102.957 58.8459 102.924 58.8589 102.879 58.8589C102.794 58.898 102.745 58.9696 102.732 59.0738C102.557 59.1454 102.387 59.23 102.225 59.3277C102.062 59.4254 101.928 59.5588 101.824 59.7281C101.688 59.8127 101.557 59.9104 101.434 60.0211C101.316 60.1252 101.202 60.2359 101.092 60.3531C100.981 60.4703 100.87 60.5907 100.76 60.7144C100.656 60.8316 100.545 60.9455 100.428 61.0562C100.415 61.1539 100.392 61.245 100.359 61.3297C100.327 61.4143 100.291 61.5022 100.252 61.5933C100.252 61.6649 100.275 61.7268 100.32 61.7789C100.366 61.831 100.389 61.8993 100.389 61.9839C100.551 62.0165 100.711 62.0425 100.867 62.0621C101.03 62.0751 101.196 62.0816 101.365 62.0816C101.528 62.0816 101.691 62.0718 101.854 62.0523C102.016 62.0263 102.169 61.9774 102.312 61.9058C102.41 61.9319 102.511 61.9449 102.615 61.9449C102.758 61.9449 102.895 61.9319 103.025 61.9058C103.162 61.8733 103.299 61.8602 103.436 61.8668C103.598 61.8082 103.764 61.7691 103.934 61.7496C104.109 61.7235 104.282 61.704 104.451 61.691C104.62 61.6714 104.79 61.6487 104.959 61.6226C105.135 61.5966 105.304 61.5477 105.467 61.4761C105.558 61.4957 105.643 61.4989 105.721 61.4859C105.799 61.4729 105.883 61.4664 105.975 61.4664C106.04 61.4664 106.118 61.4859 106.209 61.525C106.313 61.4729 106.421 61.4273 106.531 61.3882C106.648 61.3492 106.766 61.3297 106.883 61.3297C106.928 61.3297 106.974 61.3329 107.02 61.3394C107.065 61.3459 107.107 61.3589 107.146 61.3785C107.16 61.372 107.192 61.3589 107.244 61.3394C107.296 61.3199 107.352 61.3004 107.41 61.2808C107.469 61.2613 107.524 61.245 107.576 61.232C107.628 61.2125 107.661 61.2027 107.674 61.2027C107.726 61.2027 107.749 61.219 107.742 61.2515C107.742 61.2776 107.758 61.2906 107.791 61.2906C107.902 61.2906 108.009 61.2711 108.113 61.232C108.217 61.1864 108.325 61.1636 108.436 61.1636C108.481 61.1636 108.523 61.1669 108.562 61.1734C108.602 61.1799 108.647 61.1897 108.699 61.2027C108.725 61.2418 108.748 61.2841 108.768 61.3297C108.787 61.3687 108.82 61.3948 108.865 61.4078Z" fill="white"/>
<defs>
<clipPath id="clip0">
<rect width="50.6897" height="50.6897" fill="white" transform="translate(33.0918 3.08282) rotate(-3.48678)"/>
</clipPath>
</defs>
</svg>
